<svg width="295" height="204" viewBox="0 0 295 204" fill="none" xmlns="http://www.w3.org/2000/svg">
<path d="M33 25C33 11.1929 44.1929 0 58 0H270C283.807 0 295 11.1929 295 25V192C295 198.627 289.627 204 283 204H58C44.1929 204 33 192.807 33 179V25Z" fill="#132222"/>
<rect x="37" y="4" width="91" height="196" rx="23" fill="#103939"/>
<rect x="4" y="15" width="109" height="30" rx="8" fill="#447777"/>
<path d="M23.32 25.48L22.92 27.72H20.92L20.52 30.48H22.44L22.04 32.72H20.2L19.72 36H17.32L17.8 32.72H14.96L14.48 36H12.08L12.56 32.72H10.48L10.88 30.48H12.88L13.28 27.72H11.36L11.76 25.48H13.6L14.08 22.2H16.48L16 25.48H18.84L19.32 22.2H21.72L21.24 25.48H23.32ZM15.28 30.48H18.12L18.52 27.72H15.68L15.28 30.48ZM33.2231 40.08C31.8098 40.08 30.6898 39.8533 29.8631 39.4C29.0365 38.9467 28.6231 38.2667 28.6231 37.36C28.6231 36.56 28.9898 35.9467 29.7231 35.52C29.2831 35.12 29.0631 34.62 29.0631 34.02C29.0631 33.1533 29.5165 32.5 30.4231 32.06C29.7431 31.46 29.4031 30.66 29.4031 29.66C29.4031 28.6867 29.7365 27.8867 30.4031 27.26C31.0831 26.6333 32.0231 26.32 33.2231 26.32C33.8365 26.32 34.4031 26.4133 34.9231 26.6L36.5231 24.84L38.0431 26.54L36.4631 27.76C36.8498 28.3067 37.0431 28.94 37.0431 29.66C37.0431 30.6333 36.7031 31.4333 36.0231 32.06C35.3565 32.6867 34.4231 33 33.2231 33C32.6898 33 32.1898 32.9267 31.7231 32.78C31.4431 32.9267 31.3031 33.1267 31.3031 33.38C31.3031 33.8733 31.7565 34.12 32.6631 34.12H34.8631C35.7165 34.12 36.4298 34.3467 37.0031 34.8C37.5765 35.2533 37.8631 35.8867 37.8631 36.7C37.8631 37.8333 37.4565 38.68 36.6431 39.24C35.8431 39.8 34.7031 40.08 33.2231 40.08ZM33.2231 31.12C33.6365 31.12 33.9631 30.9933 34.2031 30.74C34.4431 30.4733 34.5631 30.1133 34.5631 29.66C34.5631 29.2067 34.4431 28.8533 34.2031 28.6C33.9631 28.3333 33.6365 28.2 33.2231 28.2C32.8098 28.2 32.4831 28.3333 32.2431 28.6C32.0031 28.8533 31.8831 29.2067 31.8831 29.66C31.8831 30.1133 32.0031 30.4733 32.2431 30.74C32.4831 30.9933 32.8098 31.12 33.2231 31.12ZM33.2231 38.18C34.0231 38.18 34.6031 38.0867 34.9631 37.9C35.3231 37.7133 35.5031 37.4333 35.5031 37.06C35.5031 36.8067 35.4098 36.6133 35.2231 36.48C35.0498 36.3467 34.8165 36.28 34.5231 36.28H32.1831C31.9165 36.28 31.5831 36.2533 31.1831 36.2C31.0231 36.3867 30.9431 36.6133 30.9431 36.88C30.9431 37.3067 31.1365 37.6267 31.5231 37.84C31.9098 38.0667 32.4765 38.18 33.2231 38.18ZM43.7883 36.28C42.2816 36.28 41.0616 35.86 40.1283 35.02C39.2083 34.18 38.7483 32.9467 38.7483 31.32C38.7483 30.2133 38.9683 29.2867 39.4083 28.54C39.8483 27.78 40.4216 27.22 41.1283 26.86C41.8483 26.5 42.6149 26.32 43.4283 26.32C44.9349 26.32 46.0549 26.7667 46.7883 27.66C47.5216 28.5533 47.8883 29.7133 47.8883 31.14C47.8883 31.4467 47.8683 31.76 47.8283 32.08H41.4683C41.6016 32.6933 41.8749 33.1733 42.2883 33.52C42.7016 33.8667 43.2283 34.04 43.8683 34.04C44.3216 34.04 44.7283 33.96 45.0883 33.8C45.4483 33.64 45.7949 33.3933 46.1283 33.06L47.5483 34.86C47.0816 35.3 46.5483 35.6467 45.9483 35.9C45.3483 36.1533 44.6283 36.28 43.7883 36.28ZM45.4083 30.18C45.2616 29.06 44.6083 28.5 43.4483 28.5C42.9149 28.5 42.4816 28.6467 42.1483 28.94C41.8283 29.2333 41.6083 29.6467 41.4883 30.18H45.4083ZM49.8533 36V26.6H52.4133L52.6133 27.9C52.8799 27.4333 53.2399 27.0533 53.6933 26.76C54.1599 26.4667 54.7199 26.32 55.3733 26.32C56.3866 26.32 57.1399 26.62 57.6333 27.22C58.1266 27.8067 58.3733 28.6 58.3733 29.6V36H55.6133V30.1C55.6133 29.6733 55.4999 29.3333 55.2733 29.08C55.0599 28.8133 54.7599 28.68 54.3733 28.68C53.9999 28.68 53.6466 28.7933 53.3133 29.02C52.9933 29.2467 52.7599 29.5133 52.6133 29.82V36H49.8533ZM65.4094 36.28C63.9027 36.28 62.6827 35.86 61.7494 35.02C60.8294 34.18 60.3694 32.9467 60.3694 31.32C60.3694 30.2133 60.5894 29.2867 61.0294 28.54C61.4694 27.78 62.0427 27.22 62.7494 26.86C63.4694 26.5 64.236 26.32 65.0494 26.32C66.556 26.32 67.676 26.7667 68.4094 27.66C69.1427 28.5533 69.5094 29.7133 69.5094 31.14C69.5094 31.4467 69.4894 31.76 69.4494 32.08H63.0894C63.2227 32.6933 63.496 33.1733 63.9094 33.52C64.3227 33.8667 64.8494 34.04 65.4894 34.04C65.9427 34.04 66.3494 33.96 66.7094 33.8C67.0694 33.64 67.416 33.3933 67.7494 33.06L69.1694 34.86C68.7027 35.3 68.1694 35.6467 67.5694 35.9C66.9694 36.1533 66.2494 36.28 65.4094 36.28ZM67.0294 30.18C66.8827 29.06 66.2294 28.5 65.0694 28.5C64.536 28.5 64.1027 28.6467 63.7694 28.94C63.4494 29.2333 63.2294 29.6467 63.1094 30.18H67.0294ZM71.4744 36V26.6H73.9544L74.2144 27.98C74.4677 27.4333 74.7944 27.02 75.1944 26.74C75.6077 26.46 76.1277 26.32 76.7544 26.32C77.141 26.32 77.421 26.3667 77.5944 26.46V29.1C77.1677 28.9267 76.7144 28.84 76.2344 28.84C75.821 28.84 75.4277 28.9733 75.0544 29.24C74.681 29.4933 74.401 29.8533 74.2144 30.32V36H71.4744ZM81.673 36.28C80.8196 36.28 80.1263 36.0267 79.593 35.52C79.0596 35 78.793 34.3 78.793 33.42C78.793 32.3533 79.273 31.5667 80.233 31.06C81.2063 30.54 82.573 30.2667 84.333 30.24V30.18C84.333 29.7 84.173 29.3133 83.853 29.02C83.5463 28.7267 83.1396 28.58 82.633 28.58C82.2463 28.58 81.8396 28.6533 81.413 28.8C80.9996 28.9467 80.6063 29.1867 80.233 29.52L78.953 27.82C79.433 27.3267 80.0063 26.9533 80.673 26.7C81.3396 26.4467 82.0663 26.32 82.853 26.32C85.6796 26.32 87.093 27.6067 87.093 30.18V36H84.513L84.333 34.98C83.6796 35.8467 82.793 36.28 81.673 36.28ZM82.433 34.12C82.833 34.12 83.1796 34.04 83.473 33.88C83.7796 33.7067 84.0663 33.4867 84.333 33.22V31.96C82.4263 32.0533 81.473 32.4933 81.473 33.28C81.473 33.56 81.5596 33.7733 81.733 33.92C81.9063 34.0533 82.1396 34.12 82.433 34.12ZM92.5998 36.28C91.5998 36.28 90.8465 36 90.3398 35.44C89.8332 34.88 89.5798 34 89.5798 32.8V21.4H92.3398V32.56C92.3398 33.0133 92.4065 33.34 92.5398 33.54C92.6865 33.74 92.9265 33.84 93.2598 33.84C93.5132 33.84 93.7265 33.7733 93.8998 33.64V36C93.7532 36.1067 93.5798 36.18 93.3798 36.22C93.1798 36.26 92.9198 36.28 92.5998 36.28Z" fill="white"/>
<rect x="4" y="50" width="109" height="30" rx="8" fill="#447777"/>
<path d="M23.32 60.48L22.92 62.72H20.92L20.52 65.48H22.44L22.04 67.72H20.2L19.72 71H17.32L17.8 67.72H14.96L14.48 71H12.08L12.56 67.72H10.48L10.88 65.48H12.88L13.28 62.72H11.36L11.76 60.48H13.6L14.08 57.2H16.48L16 60.48H18.84L19.32 57.2H21.72L21.24 60.48H23.32ZM15.28 65.48H18.12L18.52 62.72H15.68L15.28 65.48ZM40.4431 61.32C41.3765 61.32 42.1031 61.6333 42.6231 62.26C43.1431 62.8867 43.4031 63.6467 43.4031 64.54V71H40.6431V65.14C40.6431 64.7133 40.5298 64.3733 40.3031 64.12C40.0898 63.8533 39.7965 63.72 39.4231 63.72C38.7565 63.72 38.2165 64.06 37.8031 64.74V71H35.0431V65.14C35.0431 64.7267 34.9298 64.3867 34.7031 64.12C34.4898 63.8533 34.2031 63.72 33.8431 63.72C33.4565 63.72 33.1165 63.8133 32.8231 64C32.5431 64.1867 32.3365 64.4333 32.2031 64.74V71H29.4431V61.6H32.0231L32.2031 62.82C32.4965 62.3667 32.8431 62.0067 33.2431 61.74C33.6565 61.46 34.1898 61.32 34.8431 61.32C35.5231 61.32 36.0698 61.4667 36.4831 61.76C36.9098 62.04 37.2298 62.42 37.4431 62.9C37.7631 62.4067 38.1831 62.02 38.7031 61.74C39.2231 61.46 39.8031 61.32 40.4431 61.32ZM50.4484 71.28C48.9418 71.28 47.7218 70.86 46.7884 70.02C45.8684 69.18 45.4084 67.9467 45.4084 66.32C45.4084 65.2133 45.6284 64.2867 46.0684 63.54C46.5084 62.78 47.0818 62.22 47.7884 61.86C48.5084 61.5 49.2751 61.32 50.0884 61.32C51.5951 61.32 52.7151 61.7667 53.4484 62.66C54.1818 63.5533 54.5484 64.7133 54.5484 66.14C54.5484 66.4467 54.5284 66.76 54.4884 67.08H48.1284C48.2618 67.6933 48.5351 68.1733 48.9484 68.52C49.3618 68.8667 49.8884 69.04 50.5284 69.04C50.9818 69.04 51.3884 68.96 51.7484 68.8C52.1084 68.64 52.4551 68.3933 52.7884 68.06L54.2084 69.86C53.7418 70.3 53.2084 70.6467 52.6084 70.9C52.0084 71.1533 51.2884 71.28 50.4484 71.28ZM52.0684 65.18C51.9218 64.06 51.2684 63.5 50.1084 63.5C49.5751 63.5 49.1418 63.6467 48.8084 63.94C48.4884 64.2333 48.2684 64.6467 48.1484 65.18H52.0684ZM60.1734 71.28C59.4134 71.28 58.7201 71.0867 58.0934 70.7C57.4668 70.3133 56.9668 69.7467 56.5934 69C56.2201 68.24 56.0334 67.34 56.0334 66.3C56.0334 65.26 56.2201 64.3667 56.5934 63.62C56.9668 62.86 57.4668 62.2867 58.0934 61.9C58.7201 61.5133 59.4134 61.32 60.1734 61.32C61.0801 61.32 61.8401 61.5667 62.4534 62.06V56.4H65.2134V71H62.8534L62.6934 70.1C62.3468 70.4867 61.9734 70.78 61.5734 70.98C61.1734 71.18 60.7068 71.28 60.1734 71.28ZM60.9334 68.92C61.5334 68.92 62.0401 68.6733 62.4534 68.18V64.4C62.0534 63.92 61.5468 63.68 60.9334 63.68C60.2934 63.68 59.7734 63.92 59.3734 64.4C58.9868 64.88 58.7934 65.5133 58.7934 66.3C58.7934 67.0867 58.9868 67.72 59.3734 68.2C59.7734 68.68 60.2934 68.92 60.9334 68.92ZM69.0653 60.1C68.5586 60.1 68.1586 59.9533 67.8653 59.66C67.572 59.3667 67.4253 58.9667 67.4253 58.46C67.4253 57.9533 67.572 57.5533 67.8653 57.26C68.1586 56.9667 68.5586 56.82 69.0653 56.82C69.572 56.82 69.972 56.9667 70.2653 57.26C70.5586 57.5533 70.7053 57.9533 70.7053 58.46C70.7053 58.9667 70.5586 59.3667 70.2653 59.66C69.972 59.9533 69.572 60.1 69.0653 60.1ZM70.4453 71H67.6853V61.6H70.4453V71ZM75.5597 71.28C74.7064 71.28 74.013 71.0267 73.4797 70.52C72.9464 70 72.6797 69.3 72.6797 68.42C72.6797 67.3533 73.1597 66.5667 74.1197 66.06C75.093 65.54 76.4597 65.2667 78.2197 65.24V65.18C78.2197 64.7 78.0597 64.3133 77.7397 64.02C77.433 63.7267 77.0264 63.58 76.5197 63.58C76.133 63.58 75.7264 63.6533 75.2997 63.8C74.8864 63.9467 74.493 64.1867 74.1197 64.52L72.8397 62.82C73.3197 62.3267 73.893 61.9533 74.5597 61.7C75.2264 61.4467 75.953 61.32 76.7397 61.32C79.5664 61.32 80.9797 62.6067 80.9797 65.18V71H78.3997L78.2197 69.98C77.5664 70.8467 76.6797 71.28 75.5597 71.28ZM76.3197 69.12C76.7197 69.12 77.0664 69.04 77.3597 68.88C77.6664 68.7067 77.953 68.4867 78.2197 68.22V66.96C76.313 67.0533 75.3597 67.4933 75.3597 68.28C75.3597 68.56 75.4464 68.7733 75.6197 68.92C75.793 69.0533 76.0264 69.12 76.3197 69.12Z" fill="white"/>
<rect x="4" y="85" width="109" height="30" rx="8" fill="#447777"/>
<path d="M23.32 95.48L22.92 97.72H20.92L20.52 100.48H22.44L22.04 102.72H20.2L19.72 106H17.32L17.8 102.72H14.96L14.48 106H12.08L12.56 102.72H10.48L10.88 100.48H12.88L13.28 97.72H11.36L11.76 95.48H13.6L14.08 92.2H16.48L16 95.48H18.84L19.32 92.2H21.72L21.24 95.48H23.32ZM15.28 100.48H18.12L18.52 97.72H15.68L15.28 100.48ZM33.7031 106.28C32.8365 106.28 32.0431 106.093 31.3231 105.72C30.6165 105.347 30.0431 104.787 29.6031 104.04C29.1765 103.293 28.9631 102.38 28.9631 101.3C28.9631 100.22 29.1765 99.3067 29.6031 98.56C30.0431 97.8133 30.6165 97.2533 31.3231 96.88C32.0431 96.5067 32.8365 96.32 33.7031 96.32C34.5698 96.32 35.3565 96.5067 36.0631 96.88C36.7831 97.2533 37.3565 97.8133 37.7831 98.56C38.2231 99.3067 38.4431 100.22 38.4431 101.3C38.4431 102.38 38.2231 103.293 37.7831 104.04C37.3565 104.787 36.7831 105.347 36.0631 105.72C35.3565 106.093 34.5698 106.28 33.7031 106.28ZM33.7031 103.92C34.3298 103.92 34.8165 103.7 35.1631 103.26C35.5098 102.82 35.6831 102.167 35.6831 101.3C35.6831 100.433 35.5098 99.78 35.1631 99.34C34.8165 98.9 34.3298 98.68 33.7031 98.68C33.0765 98.68 32.5898 98.9 32.2431 99.34C31.8965 99.78 31.7231 100.433 31.7231 101.3C31.7231 102.167 31.8965 102.82 32.2431 103.26C32.5898 103.7 33.0765 103.92 33.7031 103.92ZM41.0792 106V98.96H39.5992V96.6H41.0792V94.66C41.0792 93.4867 41.4059 92.6067 42.0592 92.02C42.7126 91.42 43.6059 91.12 44.7392 91.12C45.0859 91.12 45.3592 91.14 45.5592 91.18C45.7592 91.22 46.0126 91.2867 46.3192 91.38V93.78C45.8526 93.58 45.4392 93.48 45.0792 93.48C44.2526 93.48 43.8392 93.8933 43.8392 94.72V96.6H46.1592V98.96H43.8392V106H41.0792ZM47.505 106V98.96H46.025V96.6H47.505V94.66C47.505 93.4867 47.8317 92.6067 48.485 92.02C49.1383 91.42 50.0317 91.12 51.165 91.12C51.5117 91.12 51.785 91.14 51.985 91.18C52.185 91.22 52.4383 91.2867 52.745 91.38V93.78C52.2783 93.58 51.865 93.48 51.505 93.48C50.6783 93.48 50.265 93.8933 50.265 94.72V96.6H52.585V98.96H50.265V106H47.505ZM60.4469 100.92H54.0469V98.52H60.4469V100.92ZM66.7453 106.28C65.652 106.28 64.8453 106.007 64.3253 105.46C63.8053 104.913 63.5453 104.053 63.5453 102.88V98.96H61.8853V96.6H63.5453V94.16L66.3253 93.36V96.6H68.6053V98.96H66.3253V102.58C66.3253 103.007 66.4053 103.34 66.5653 103.58C66.7253 103.807 67.0253 103.92 67.4653 103.92C67.892 103.92 68.272 103.78 68.6053 103.5V105.8C68.152 106.12 67.532 106.28 66.7453 106.28ZM74.6797 106.28C73.813 106.28 73.0197 106.093 72.2997 105.72C71.593 105.347 71.0197 104.787 70.5797 104.04C70.153 103.293 69.9397 102.38 69.9397 101.3C69.9397 100.22 70.153 99.3067 70.5797 98.56C71.0197 97.8133 71.593 97.2533 72.2997 96.88C73.0197 96.5067 73.813 96.32 74.6797 96.32C75.5464 96.32 76.333 96.5067 77.0397 96.88C77.7597 97.2533 78.333 97.8133 78.7597 98.56C79.1997 99.3067 79.4197 100.22 79.4197 101.3C79.4197 102.38 79.1997 103.293 78.7597 104.04C78.333 104.787 77.7597 105.347 77.0397 105.72C76.333 106.093 75.5464 106.28 74.6797 106.28ZM74.6797 103.92C75.3064 103.92 75.793 103.7 76.1397 103.26C76.4864 102.82 76.6597 102.167 76.6597 101.3C76.6597 100.433 76.4864 99.78 76.1397 99.34C75.793 98.9 75.3064 98.68 74.6797 98.68C74.053 98.68 73.5664 98.9 73.2197 99.34C72.873 99.78 72.6997 100.433 72.6997 101.3C72.6997 102.167 72.873 102.82 73.2197 103.26C73.5664 103.7 74.053 103.92 74.6797 103.92ZM81.4158 109.8V96.6H83.7758L83.9358 97.5C84.2824 97.1133 84.6558 96.82 85.0558 96.62C85.4558 96.42 85.9224 96.32 86.4558 96.32C87.2158 96.32 87.9091 96.5133 88.5358 96.9C89.1624 97.2867 89.6624 97.86 90.0358 98.62C90.4091 99.3667 90.5958 100.26 90.5958 101.3C90.5958 102.34 90.4091 103.24 90.0358 104C89.6624 104.747 89.1624 105.313 88.5358 105.7C87.9091 106.087 87.2158 106.28 86.4558 106.28C85.5491 106.28 84.7891 106.033 84.1758 105.54V109.8H81.4158ZM85.6958 103.92C86.3358 103.92 86.8491 103.68 87.2358 103.2C87.6358 102.72 87.8358 102.087 87.8358 101.3C87.8358 100.513 87.6358 99.88 87.2358 99.4C86.8491 98.92 86.3358 98.68 85.6958 98.68C85.0958 98.68 84.5891 98.9267 84.1758 99.42V103.2C84.5758 103.68 85.0824 103.92 85.6958 103.92ZM93.9677 95.1C93.461 95.1 93.061 94.9533 92.7677 94.66C92.4743 94.3667 92.3277 93.9667 92.3277 93.46C92.3277 92.9533 92.4743 92.5533 92.7677 92.26C93.061 91.9667 93.461 91.82 93.9677 91.82C94.4743 91.82 94.8743 91.9667 95.1677 92.26C95.461 92.5533 95.6077 92.9533 95.6077 93.46C95.6077 93.9667 95.461 94.3667 95.1677 94.66C94.8743 94.9533 94.4743 95.1 93.9677 95.1ZM95.3477 106H92.5877V96.6H95.3477V106ZM102.162 106.28C101.269 106.28 100.455 106.093 99.722 105.72C99.002 105.347 98.422 104.787 97.982 104.04C97.5554 103.28 97.342 102.36 97.342 101.28C97.342 100.187 97.562 99.2667 98.002 98.52C98.442 97.7733 99.0287 97.22 99.762 96.86C100.495 96.5 101.309 96.32 102.202 96.32C103.162 96.32 103.949 96.4933 104.562 96.84C105.189 97.1867 105.722 97.6933 106.162 98.36L104.102 99.88C103.875 99.52 103.609 99.2333 103.302 99.02C102.995 98.7933 102.615 98.68 102.162 98.68C101.562 98.68 101.069 98.9067 100.682 99.36C100.295 99.8 100.102 100.44 100.102 101.28C100.102 102.133 100.295 102.787 100.682 103.24C101.082 103.693 101.589 103.92 102.202 103.92C102.695 103.92 103.095 103.813 103.402 103.6C103.722 103.387 104.009 103.093 104.262 102.72L106.162 104.32C105.789 104.907 105.255 105.38 104.562 105.74C103.869 106.1 103.069 106.28 102.162 106.28Z" fill="white"/>
<rect x="133" y="172" width="158" height="28" rx="10" fill="#447777"/>
<rect x="46" y="128" width="73" height="5" rx="2.5" fill="#072927"/>
<rect x="138" y="50" width="148" height="5" rx="2.5" fill="white" fill-opacity="0.5"/>
<rect x="138" y="90" width="94" height="5" rx="2.5" fill="white" fill-opacity="0.5"/>
<rect x="138" y="80" width="148" height="5" rx="2.5" fill="white" fill-opacity="0.5"/>
<rect x="138" y="70" width="61" height="5" rx="2.5" fill="white" fill-opacity="0.5"/>
<rect x="138" y="60" width="148" height="5" rx="2.5" fill="white" fill-opacity="0.5"/>
<rect x="46" y="140" width="73" height="5" rx="2.5" fill="#072927"/>
<rect x="46" y="164" width="73" height="5" rx="2.5" fill="#072927"/>
<rect x="46" y="152" width="73" height="5" rx="2.5" fill="#072927"/>
<rect x="46" y="176" width="73" height="5" rx="2.5" fill="#072927"/>
<circle cx="147.5" cy="29.5" r="11.5" fill="#447777"/>
<rect x="138" y="134" width="96" height="5" rx="2.5" fill="white" fill-opacity="0.5"/>
<rect x="138" y="154" width="61" height="5" rx="2.5" fill="white" fill-opacity="0.5"/>
<rect x="138" y="144" width="148" height="5" rx="2.5" fill="white" fill-opacity="0.5"/>
<circle cx="147.5" cy="113.5" r="11.5" fill="#447777"/>
<path d="M146.648 191.224C145.987 191.224 145.368 191.096 144.792 190.84C144.227 190.584 143.784 190.2 143.464 189.688L144.904 188.488C145.149 188.829 145.416 189.091 145.704 189.272C146.003 189.443 146.36 189.528 146.776 189.528C147.053 189.528 147.283 189.475 147.464 189.368C147.656 189.251 147.752 189.091 147.752 188.888C147.752 188.675 147.656 188.499 147.464 188.36C147.272 188.211 146.952 188.093 146.504 188.008L146.008 187.912C145.293 187.773 144.739 187.533 144.344 187.192C143.949 186.84 143.752 186.333 143.752 185.672C143.752 184.872 144.035 184.269 144.6 183.864C145.165 183.459 145.901 183.256 146.808 183.256C147.469 183.256 148.024 183.368 148.472 183.592C148.931 183.805 149.32 184.115 149.64 184.52L148.2 185.736C148.019 185.491 147.789 185.299 147.512 185.16C147.245 185.021 146.968 184.952 146.68 184.952C146.435 184.952 146.221 185.005 146.04 185.112C145.859 185.208 145.768 185.347 145.768 185.528C145.768 185.709 145.869 185.859 146.072 185.976C146.285 186.093 146.648 186.195 147.16 186.28L147.528 186.344C149.064 186.611 149.832 187.373 149.832 188.632C149.832 189.464 149.544 190.104 148.968 190.552C148.392 191 147.619 191.224 146.648 191.224ZM154.796 191.224C153.591 191.224 152.615 190.888 151.868 190.216C151.132 189.544 150.764 188.557 150.764 187.256C150.764 186.371 150.94 185.629 151.292 185.032C151.644 184.424 152.103 183.976 152.668 183.688C153.244 183.4 153.858 183.256 154.508 183.256C155.714 183.256 156.61 183.613 157.196 184.328C157.783 185.043 158.076 185.971 158.076 187.112C158.076 187.357 158.06 187.608 158.028 187.864H152.94C153.047 188.355 153.266 188.739 153.596 189.016C153.927 189.293 154.348 189.432 154.86 189.432C155.223 189.432 155.548 189.368 155.836 189.24C156.124 189.112 156.402 188.915 156.668 188.648L157.804 190.088C157.431 190.44 157.004 190.717 156.524 190.92C156.044 191.123 155.468 191.224 154.796 191.224ZM156.092 186.344C155.975 185.448 155.452 185 154.524 185C154.098 185 153.751 185.117 153.484 185.352C153.228 185.587 153.052 185.917 152.956 186.344H156.092ZM159.648 191V183.48H161.696L161.856 184.52C162.07 184.147 162.358 183.843 162.72 183.608C163.094 183.373 163.542 183.256 164.064 183.256C164.875 183.256 165.478 183.496 165.872 183.976C166.267 184.445 166.464 185.08 166.464 185.88V191H164.256V186.28C164.256 185.939 164.166 185.667 163.984 185.464C163.814 185.251 163.574 185.144 163.264 185.144C162.966 185.144 162.683 185.235 162.416 185.416C162.16 185.597 161.974 185.811 161.856 186.056V191H159.648ZM171.373 191.224C170.765 191.224 170.21 191.069 169.709 190.76C169.208 190.451 168.808 189.997 168.509 189.4C168.21 188.792 168.061 188.072 168.061 187.24C168.061 186.408 168.21 185.693 168.509 185.096C168.808 184.488 169.208 184.029 169.709 183.72C170.21 183.411 170.765 183.256 171.373 183.256C172.098 183.256 172.706 183.453 173.197 183.848V179.32H175.405V191H173.517L173.389 190.28C173.112 190.589 172.813 190.824 172.493 190.984C172.173 191.144 171.8 191.224 171.373 191.224ZM171.981 189.336C172.461 189.336 172.866 189.139 173.197 188.744V185.72C172.877 185.336 172.472 185.144 171.981 185.144C171.469 185.144 171.053 185.336 170.733 185.72C170.424 186.104 170.269 186.611 170.269 187.24C170.269 187.869 170.424 188.376 170.733 188.76C171.053 189.144 171.469 189.336 171.981 189.336ZM189.698 183.256C190.445 183.256 191.026 183.507 191.442 184.008C191.858 184.509 192.066 185.117 192.066 185.832V191H189.858V186.312C189.858 185.971 189.768 185.699 189.586 185.496C189.416 185.283 189.181 185.176 188.882 185.176C188.349 185.176 187.917 185.448 187.586 185.992V191H185.378V186.312C185.378 185.981 185.288 185.709 185.106 185.496C184.936 185.283 184.706 185.176 184.418 185.176C184.109 185.176 183.837 185.251 183.602 185.4C183.378 185.549 183.213 185.747 183.106 185.992V191H180.898V183.48H182.962L183.106 184.456C183.341 184.093 183.618 183.805 183.938 183.592C184.269 183.368 184.696 183.256 185.218 183.256C185.762 183.256 186.2 183.373 186.53 183.608C186.872 183.832 187.128 184.136 187.298 184.52C187.554 184.125 187.89 183.816 188.306 183.592C188.722 183.368 189.186 183.256 189.698 183.256ZM197.703 191.224C196.497 191.224 195.521 190.888 194.775 190.216C194.039 189.544 193.671 188.557 193.671 187.256C193.671 186.371 193.847 185.629 194.199 185.032C194.551 184.424 195.009 183.976 195.575 183.688C196.151 183.4 196.764 183.256 197.415 183.256C198.62 183.256 199.516 183.613 200.103 184.328C200.689 185.043 200.983 185.971 200.983 187.112C200.983 187.357 200.967 187.608 200.935 187.864H195.847C195.953 188.355 196.172 188.739 196.503 189.016C196.833 189.293 197.255 189.432 197.766 189.432C198.129 189.432 198.455 189.368 198.743 189.24C199.031 189.112 199.308 188.915 199.575 188.648L200.711 190.088C200.337 190.44 199.911 190.717 199.431 190.92C198.951 191.123 198.375 191.224 197.703 191.224ZM198.999 186.344C198.881 185.448 198.359 185 197.431 185C197.004 185 196.657 185.117 196.391 185.352C196.135 185.587 195.959 185.917 195.863 186.344H198.999ZM205.211 191.224C204.549 191.224 203.931 191.096 203.355 190.84C202.789 190.584 202.347 190.2 202.027 189.688L203.467 188.488C203.712 188.829 203.979 189.091 204.267 189.272C204.565 189.443 204.923 189.528 205.339 189.528C205.616 189.528 205.845 189.475 206.027 189.368C206.219 189.251 206.315 189.091 206.315 188.888C206.315 188.675 206.219 188.499 206.027 188.36C205.835 188.211 205.515 188.093 205.067 188.008L204.571 187.912C203.856 187.773 203.301 187.533 202.907 187.192C202.512 186.84 202.315 186.333 202.315 185.672C202.315 184.872 202.597 184.269 203.163 183.864C203.728 183.459 204.464 183.256 205.371 183.256C206.032 183.256 206.587 183.368 207.035 183.592C207.493 183.805 207.883 184.115 208.203 184.52L206.763 185.736C206.581 185.491 206.352 185.299 206.075 185.16C205.808 185.021 205.531 184.952 205.243 184.952C204.997 184.952 204.784 185.005 204.603 185.112C204.421 185.208 204.331 185.347 204.331 185.528C204.331 185.709 204.432 185.859 204.635 185.976C204.848 186.093 205.211 186.195 205.723 186.28L206.091 186.344C207.627 186.611 208.395 187.373 208.395 188.632C208.395 189.464 208.107 190.104 207.531 190.552C206.955 191 206.181 191.224 205.211 191.224ZM212.492 191.224C211.83 191.224 211.212 191.096 210.636 190.84C210.07 190.584 209.628 190.2 209.308 189.688L210.748 188.488C210.993 188.829 211.26 189.091 211.548 189.272C211.846 189.443 212.204 189.528 212.62 189.528C212.897 189.528 213.126 189.475 213.308 189.368C213.5 189.251 213.596 189.091 213.596 188.888C213.596 188.675 213.5 188.499 213.308 188.36C213.116 188.211 212.796 188.093 212.348 188.008L211.852 187.912C211.137 187.773 210.582 187.533 210.188 187.192C209.793 186.84 209.596 186.333 209.596 185.672C209.596 184.872 209.878 184.269 210.444 183.864C211.009 183.459 211.745 183.256 212.652 183.256C213.313 183.256 213.868 183.368 214.316 183.592C214.774 183.805 215.164 184.115 215.484 184.52L214.044 185.736C213.862 185.491 213.633 185.299 213.356 185.16C213.089 185.021 212.812 184.952 212.524 184.952C212.278 184.952 212.065 185.005 211.884 185.112C211.702 185.208 211.612 185.347 211.612 185.528C211.612 185.709 211.713 185.859 211.916 185.976C212.129 186.093 212.492 186.195 213.004 186.28L213.372 186.344C214.908 186.611 215.676 187.373 215.676 188.632C215.676 189.464 215.388 190.104 214.812 190.552C214.236 191 213.462 191.224 212.492 191.224ZM219.073 191.224C218.39 191.224 217.835 191.021 217.409 190.616C216.982 190.2 216.769 189.64 216.769 188.936C216.769 188.083 217.153 187.453 217.921 187.048C218.699 186.632 219.793 186.413 221.201 186.392V186.344C221.201 185.96 221.073 185.651 220.817 185.416C220.571 185.181 220.246 185.064 219.841 185.064C219.531 185.064 219.206 185.123 218.865 185.24C218.534 185.357 218.219 185.549 217.921 185.816L216.897 184.456C217.281 184.061 217.739 183.763 218.273 183.56C218.806 183.357 219.387 183.256 220.017 183.256C222.278 183.256 223.409 184.285 223.409 186.344V191H221.345L221.201 190.184C220.678 190.877 219.969 191.224 219.073 191.224ZM219.681 189.496C220.001 189.496 220.278 189.432 220.513 189.304C220.758 189.165 220.987 188.989 221.201 188.776V187.768C219.675 187.843 218.913 188.195 218.913 188.824C218.913 189.048 218.982 189.219 219.121 189.336C219.259 189.443 219.446 189.496 219.681 189.496ZM228.422 194.264C227.292 194.264 226.396 194.083 225.734 193.72C225.073 193.357 224.742 192.813 224.742 192.088C224.742 191.448 225.036 190.957 225.622 190.616C225.27 190.296 225.094 189.896 225.094 189.416C225.094 188.723 225.457 188.2 226.182 187.848C225.638 187.368 225.366 186.728 225.366 185.928C225.366 185.149 225.633 184.509 226.166 184.008C226.71 183.507 227.462 183.256 228.422 183.256C228.913 183.256 229.366 183.331 229.782 183.48L231.062 182.072L232.278 183.432L231.014 184.408C231.324 184.845 231.478 185.352 231.478 185.928C231.478 186.707 231.206 187.347 230.662 187.848C230.129 188.349 229.382 188.6 228.422 188.6C227.996 188.6 227.596 188.541 227.222 188.424C226.998 188.541 226.886 188.701 226.886 188.904C226.886 189.299 227.249 189.496 227.974 189.496H229.734C230.417 189.496 230.988 189.677 231.446 190.04C231.905 190.403 232.134 190.909 232.134 191.56C232.134 192.467 231.809 193.144 231.158 193.592C230.518 194.04 229.606 194.264 228.422 194.264ZM228.422 187.096C228.753 187.096 229.014 186.995 229.206 186.792C229.398 186.579 229.494 186.291 229.494 185.928C229.494 185.565 229.398 185.283 229.206 185.08C229.014 184.867 228.753 184.76 228.422 184.76C228.092 184.76 227.83 184.867 227.638 185.08C227.446 185.283 227.35 185.565 227.35 185.928C227.35 186.291 227.446 186.579 227.638 186.792C227.83 186.995 228.092 187.096 228.422 187.096ZM228.422 192.744C229.062 192.744 229.526 192.669 229.814 192.52C230.102 192.371 230.246 192.147 230.246 191.848C230.246 191.645 230.172 191.491 230.022 191.384C229.884 191.277 229.697 191.224 229.462 191.224H227.59C227.377 191.224 227.11 191.203 226.79 191.16C226.662 191.309 226.598 191.491 226.598 191.704C226.598 192.045 226.753 192.301 227.062 192.472C227.372 192.653 227.825 192.744 228.422 192.744ZM236.874 191.224C235.669 191.224 234.693 190.888 233.946 190.216C233.21 189.544 232.842 188.557 232.842 187.256C232.842 186.371 233.018 185.629 233.37 185.032C233.722 184.424 234.181 183.976 234.746 183.688C235.322 183.4 235.936 183.256 236.586 183.256C237.792 183.256 238.688 183.613 239.274 184.328C239.861 185.043 240.154 185.971 240.154 187.112C240.154 187.357 240.138 187.608 240.106 187.864H235.018C235.125 188.355 235.344 188.739 235.674 189.016C236.005 189.293 236.426 189.432 236.938 189.432C237.301 189.432 237.626 189.368 237.914 189.24C238.202 189.112 238.48 188.915 238.746 188.648L239.882 190.088C239.509 190.44 239.082 190.717 238.602 190.92C238.122 191.123 237.546 191.224 236.874 191.224ZM238.17 186.344C238.053 185.448 237.53 185 236.602 185C236.176 185 235.829 185.117 235.562 185.352C235.306 185.587 235.13 185.917 235.034 186.344H238.17Z" fill="white" fill-opacity="0.8"/>
<path d="M266.4 184.68L271.333 185.6C271.425 185.617 271.508 185.666 271.568 185.737C271.628 185.809 271.661 185.9 271.661 185.993C271.661 186.087 271.628 186.177 271.568 186.249C271.508 186.321 271.425 186.37 271.333 186.387L266.4 187.333L264.44 191.247C264.348 191.432 264.317 191.642 264.351 191.846C264.384 192.05 264.481 192.238 264.628 192.384C264.775 192.53 264.964 192.626 265.168 192.659C265.372 192.692 265.582 192.659 265.767 192.567L277.12 186.887C277.283 186.804 277.419 186.678 277.515 186.523C277.61 186.368 277.66 186.189 277.66 186.007C277.66 185.824 277.61 185.646 277.515 185.49C277.419 185.335 277.283 185.209 277.12 185.127L265.767 179.44C265.582 179.347 265.372 179.315 265.168 179.348C264.964 179.38 264.775 179.476 264.628 179.622C264.481 179.768 264.384 179.957 264.351 180.161C264.317 180.365 264.348 180.575 264.44 180.76L266.4 184.68Z" fill="white"/>
<path d="M169.822 118.182C168.184 118.182 167.005 117.593 166.286 116.414L167.664 115.231C167.95 115.682 168.262 116.015 168.6 116.232C168.938 116.44 169.341 116.544 169.809 116.544C170.277 116.544 170.641 116.453 170.901 116.271C171.161 116.089 171.291 115.82 171.291 115.465C171.291 115.101 171.139 114.828 170.836 114.646C170.541 114.464 170.065 114.308 169.406 114.178C168.626 114.022 167.972 113.732 167.443 113.307C166.923 112.882 166.663 112.289 166.663 111.526C166.663 110.989 166.802 110.516 167.079 110.109C167.356 109.702 167.738 109.39 168.223 109.173C168.717 108.956 169.276 108.848 169.9 108.848C170.671 108.848 171.313 109.004 171.824 109.316C172.335 109.619 172.76 110.031 173.098 110.551L171.785 111.617C171.516 111.192 171.235 110.889 170.94 110.707C170.645 110.525 170.299 110.434 169.9 110.434C169.449 110.434 169.103 110.521 168.86 110.694C168.626 110.867 168.509 111.101 168.509 111.396C168.509 111.63 168.578 111.821 168.717 111.968C168.856 112.107 169.046 112.224 169.289 112.319C169.532 112.406 169.87 112.501 170.303 112.605C170.918 112.752 171.425 112.917 171.824 113.099C172.223 113.281 172.543 113.545 172.786 113.892C173.037 114.239 173.163 114.702 173.163 115.283C173.163 116.219 172.86 116.938 172.253 117.441C171.646 117.935 170.836 118.182 169.822 118.182ZM174.436 120.47V111.89H175.97L176.074 112.475C176.299 112.224 176.542 112.033 176.802 111.903C177.062 111.773 177.365 111.708 177.712 111.708C178.206 111.708 178.657 111.834 179.064 112.085C179.471 112.336 179.796 112.709 180.039 113.203C180.282 113.688 180.403 114.269 180.403 114.945C180.403 115.621 180.282 116.206 180.039 116.7C179.796 117.185 179.471 117.554 179.064 117.805C178.657 118.056 178.206 118.182 177.712 118.182C177.123 118.182 176.629 118.022 176.23 117.701V120.47H174.436ZM177.218 116.648C177.634 116.648 177.968 116.492 178.219 116.18C178.479 115.868 178.609 115.456 178.609 114.945C178.609 114.434 178.479 114.022 178.219 113.71C177.968 113.398 177.634 113.242 177.218 113.242C176.828 113.242 176.499 113.402 176.23 113.723V116.18C176.49 116.492 176.819 116.648 177.218 116.648ZM182.595 110.915C182.265 110.915 182.005 110.82 181.815 110.629C181.624 110.438 181.529 110.178 181.529 109.849C181.529 109.52 181.624 109.26 181.815 109.069C182.005 108.878 182.265 108.783 182.595 108.783C182.924 108.783 183.184 108.878 183.375 109.069C183.565 109.26 183.661 109.52 183.661 109.849C183.661 110.178 183.565 110.438 183.375 110.629C183.184 110.82 182.924 110.915 182.595 110.915ZM183.492 118H181.698V111.89H183.492V118ZM185.1 118V111.89H186.764L186.894 112.735C187.067 112.432 187.301 112.185 187.596 111.994C187.899 111.803 188.263 111.708 188.688 111.708C189.347 111.708 189.836 111.903 190.157 112.293C190.478 112.674 190.638 113.19 190.638 113.84V118H188.844V114.165C188.844 113.888 188.77 113.667 188.623 113.502C188.484 113.329 188.289 113.242 188.038 113.242C187.795 113.242 187.566 113.316 187.349 113.463C187.141 113.61 186.989 113.784 186.894 113.983V118H185.1ZM195.016 118.182C194.453 118.182 193.937 118.061 193.469 117.818C193.01 117.575 192.637 117.211 192.351 116.726C192.074 116.241 191.935 115.647 191.935 114.945C191.935 114.243 192.074 113.649 192.351 113.164C192.637 112.679 193.01 112.315 193.469 112.072C193.937 111.829 194.453 111.708 195.016 111.708C195.58 111.708 196.091 111.829 196.55 112.072C197.018 112.315 197.391 112.679 197.668 113.164C197.954 113.649 198.097 114.243 198.097 114.945C198.097 115.647 197.954 116.241 197.668 116.726C197.391 117.211 197.018 117.575 196.55 117.818C196.091 118.061 195.58 118.182 195.016 118.182ZM195.016 116.648C195.424 116.648 195.74 116.505 195.965 116.219C196.191 115.933 196.303 115.508 196.303 114.945C196.303 114.382 196.191 113.957 195.965 113.671C195.74 113.385 195.424 113.242 195.016 113.242C194.609 113.242 194.293 113.385 194.067 113.671C193.842 113.957 193.729 114.382 193.729 114.945C193.729 115.508 193.842 115.933 194.067 116.219C194.293 116.505 194.609 116.648 195.016 116.648ZM201.451 118.182C200.914 118.182 200.411 118.078 199.943 117.87C199.484 117.662 199.124 117.35 198.864 116.934L200.034 115.959C200.234 116.236 200.45 116.449 200.684 116.596C200.927 116.735 201.217 116.804 201.555 116.804C201.781 116.804 201.967 116.761 202.114 116.674C202.27 116.579 202.348 116.449 202.348 116.284C202.348 116.111 202.27 115.968 202.114 115.855C201.958 115.734 201.698 115.638 201.334 115.569L200.931 115.491C200.351 115.378 199.9 115.183 199.579 114.906C199.259 114.62 199.098 114.208 199.098 113.671C199.098 113.021 199.328 112.531 199.787 112.202C200.247 111.873 200.845 111.708 201.581 111.708C202.119 111.708 202.569 111.799 202.933 111.981C203.306 112.154 203.622 112.406 203.882 112.735L202.712 113.723C202.565 113.524 202.379 113.368 202.153 113.255C201.937 113.142 201.711 113.086 201.477 113.086C201.278 113.086 201.105 113.129 200.957 113.216C200.81 113.294 200.736 113.407 200.736 113.554C200.736 113.701 200.819 113.823 200.983 113.918C201.157 114.013 201.451 114.096 201.867 114.165L202.166 114.217C203.414 114.434 204.038 115.053 204.038 116.076C204.038 116.752 203.804 117.272 203.336 117.636C202.868 118 202.24 118.182 201.451 118.182ZM206.798 118.182C206.244 118.182 205.793 118.017 205.446 117.688C205.1 117.35 204.926 116.895 204.926 116.323C204.926 115.63 205.238 115.118 205.862 114.789C206.495 114.451 207.383 114.273 208.527 114.256V114.217C208.527 113.905 208.423 113.654 208.215 113.463C208.016 113.272 207.752 113.177 207.422 113.177C207.171 113.177 206.907 113.225 206.629 113.32C206.361 113.415 206.105 113.571 205.862 113.788L205.03 112.683C205.342 112.362 205.715 112.12 206.148 111.955C206.582 111.79 207.054 111.708 207.565 111.708C209.403 111.708 210.321 112.544 210.321 114.217V118H208.644L208.527 117.337C208.103 117.9 207.526 118.182 206.798 118.182ZM207.292 116.778C207.552 116.778 207.778 116.726 207.968 116.622C208.168 116.509 208.354 116.366 208.527 116.193V115.374C207.288 115.435 206.668 115.721 206.668 116.232C206.668 116.414 206.725 116.553 206.837 116.648C206.95 116.735 207.102 116.778 207.292 116.778ZM213.901 118.182C213.251 118.182 212.761 118 212.432 117.636C212.103 117.272 211.938 116.7 211.938 115.92V108.51H213.732V115.764C213.732 116.059 213.775 116.271 213.862 116.401C213.957 116.531 214.113 116.596 214.33 116.596C214.495 116.596 214.633 116.553 214.746 116.466V118C214.651 118.069 214.538 118.117 214.408 118.143C214.278 118.169 214.109 118.182 213.901 118.182ZM217.602 118.182C217.047 118.182 216.597 118.017 216.25 117.688C215.903 117.35 215.73 116.895 215.73 116.323C215.73 115.63 216.042 115.118 216.666 114.789C217.299 114.451 218.187 114.273 219.331 114.256V114.217C219.331 113.905 219.227 113.654 219.019 113.463C218.82 113.272 218.555 113.177 218.226 113.177C217.975 113.177 217.71 113.225 217.433 113.32C217.164 113.415 216.909 113.571 216.666 113.788L215.834 112.683C216.146 112.362 216.519 112.12 216.952 111.955C217.385 111.79 217.858 111.708 218.369 111.708C220.206 111.708 221.125 112.544 221.125 114.217V118H219.448L219.331 117.337C218.906 117.9 218.33 118.182 217.602 118.182ZM218.096 116.778C218.356 116.778 218.581 116.726 218.772 116.622C218.971 116.509 219.158 116.366 219.331 116.193V115.374C218.092 115.435 217.472 115.721 217.472 116.232C217.472 116.414 217.528 116.553 217.641 116.648C217.754 116.735 217.905 116.778 218.096 116.778ZM225.121 118.182C224.627 118.182 224.176 118.056 223.769 117.805C223.361 117.554 223.036 117.185 222.794 116.7C222.551 116.206 222.43 115.621 222.43 114.945C222.43 114.269 222.551 113.688 222.794 113.203C223.036 112.709 223.361 112.336 223.769 112.085C224.176 111.834 224.627 111.708 225.121 111.708C225.71 111.708 226.204 111.868 226.603 112.189V108.51H228.397V118H226.863L226.759 117.415C226.533 117.666 226.291 117.857 226.031 117.987C225.771 118.117 225.467 118.182 225.121 118.182ZM225.615 116.648C226.005 116.648 226.334 116.488 226.603 116.167V113.71C226.343 113.398 226.013 113.242 225.615 113.242C225.199 113.242 224.861 113.398 224.601 113.71C224.349 114.022 224.224 114.434 224.224 114.945C224.224 115.456 224.349 115.868 224.601 116.18C224.861 116.492 225.199 116.648 225.615 116.648Z" fill="white"/>
<path d="M164.91 34V25.03H168.095C169.456 25.03 170.504 25.4157 171.241 26.187C171.986 26.9583 172.359 28.0677 172.359 29.515C172.359 30.9623 171.986 32.0717 171.241 32.843C170.504 33.6143 169.456 34 168.095 34H164.91ZM168.095 32.284C168.823 32.284 169.399 32.076 169.824 31.66C170.249 31.244 170.461 30.529 170.461 29.515C170.461 28.501 170.249 27.786 169.824 27.37C169.399 26.954 168.823 26.746 168.095 26.746H166.808V32.284H168.095ZM174.552 26.915C174.222 26.915 173.962 26.8197 173.772 26.629C173.581 26.4383 173.486 26.1783 173.486 25.849C173.486 25.5197 173.581 25.2597 173.772 25.069C173.962 24.8783 174.222 24.783 174.552 24.783C174.881 24.783 175.141 24.8783 175.332 25.069C175.522 25.2597 175.618 25.5197 175.618 25.849C175.618 26.1783 175.522 26.4383 175.332 26.629C175.141 26.8197 174.881 26.915 174.552 26.915ZM175.449 34H173.655V27.89H175.449V34ZM177.057 34V27.89H178.721L178.851 28.735C179.024 28.4317 179.258 28.1847 179.553 27.994C179.856 27.8033 180.22 27.708 180.645 27.708C181.304 27.708 181.793 27.903 182.114 28.293C182.435 28.6743 182.595 29.19 182.595 29.84V34H180.801V30.165C180.801 29.8877 180.727 29.6667 180.58 29.502C180.441 29.3287 180.246 29.242 179.995 29.242C179.752 29.242 179.523 29.3157 179.306 29.463C179.098 29.6103 178.946 29.7837 178.851 29.983V34H177.057ZM186.973 34.182C186.41 34.182 185.894 34.0607 185.426 33.818C184.967 33.5753 184.594 33.2113 184.308 32.726C184.031 32.2407 183.892 31.647 183.892 30.945C183.892 30.243 184.031 29.6493 184.308 29.164C184.594 28.6787 184.967 28.3147 185.426 28.072C185.894 27.8293 186.41 27.708 186.973 27.708C187.537 27.708 188.048 27.8293 188.507 28.072C188.975 28.3147 189.348 28.6787 189.625 29.164C189.911 29.6493 190.054 30.243 190.054 30.945C190.054 31.647 189.911 32.2407 189.625 32.726C189.348 33.2113 188.975 33.5753 188.507 33.818C188.048 34.0607 187.537 34.182 186.973 34.182ZM186.973 32.648C187.381 32.648 187.697 32.505 187.922 32.219C188.148 31.933 188.26 31.5083 188.26 30.945C188.26 30.3817 188.148 29.957 187.922 29.671C187.697 29.385 187.381 29.242 186.973 29.242C186.566 29.242 186.25 29.385 186.024 29.671C185.799 29.957 185.686 30.3817 185.686 30.945C185.686 31.5083 185.799 31.933 186.024 32.219C186.25 32.505 186.566 32.648 186.973 32.648ZM191.456 34V25.03H194.641C196.002 25.03 197.05 25.4157 197.787 26.187C198.532 26.9583 198.905 28.0677 198.905 29.515C198.905 30.9623 198.532 32.0717 197.787 32.843C197.05 33.6143 196.002 34 194.641 34H191.456ZM194.641 32.284C195.369 32.284 195.945 32.076 196.37 31.66C196.795 31.244 197.007 30.529 197.007 29.515C197.007 28.501 196.795 27.786 196.37 27.37C195.945 26.954 195.369 26.746 194.641 26.746H193.354V32.284H194.641ZM202.151 34.182C201.492 34.182 201.002 33.9913 200.682 33.61C200.361 33.22 200.201 32.7 200.201 32.05V27.89H201.995V31.725C201.995 32.0023 202.064 32.2277 202.203 32.401C202.35 32.5657 202.549 32.648 202.801 32.648C203.043 32.648 203.269 32.5743 203.477 32.427C203.693 32.2797 203.849 32.1063 203.945 31.907V27.89H205.739V34H204.075L203.945 33.155C203.771 33.4583 203.533 33.7053 203.23 33.896C202.935 34.0867 202.575 34.182 202.151 34.182ZM209.727 34.182C209.233 34.182 208.782 34.0563 208.375 33.805C207.968 33.5537 207.643 33.1853 207.4 32.7C207.157 32.206 207.036 31.621 207.036 30.945C207.036 30.269 207.157 29.6883 207.4 29.203C207.643 28.709 207.968 28.3363 208.375 28.085C208.782 27.8337 209.233 27.708 209.727 27.708C210.316 27.708 210.81 27.8683 211.209 28.189V24.51H213.003V34H211.469L211.365 33.415C211.14 33.6663 210.897 33.857 210.637 33.987C210.377 34.117 210.074 34.182 209.727 34.182ZM210.221 32.648C210.611 32.648 210.94 32.4877 211.209 32.167V29.71C210.949 29.398 210.62 29.242 210.221 29.242C209.805 29.242 209.467 29.398 209.207 29.71C208.956 30.022 208.83 30.4337 208.83 30.945C208.83 31.4563 208.956 31.868 209.207 32.18C209.467 32.492 209.805 32.648 210.221 32.648ZM217.574 34.182C216.594 34.182 215.801 33.909 215.195 33.363C214.597 32.817 214.298 32.0153 214.298 30.958C214.298 30.2387 214.441 29.6363 214.727 29.151C215.013 28.657 215.385 28.293 215.845 28.059C216.313 27.825 216.811 27.708 217.34 27.708C218.319 27.708 219.047 27.9983 219.524 28.579C220 29.1597 220.239 29.9137 220.239 30.841C220.239 31.0403 220.226 31.244 220.2 31.452H216.066C216.152 31.8507 216.33 32.1627 216.599 32.388C216.867 32.6133 217.21 32.726 217.626 32.726C217.92 32.726 218.185 32.674 218.419 32.57C218.653 32.466 218.878 32.3057 219.095 32.089L220.018 33.259C219.714 33.545 219.368 33.7703 218.978 33.935C218.588 34.0997 218.12 34.182 217.574 34.182ZM218.627 30.217C218.531 29.489 218.107 29.125 217.353 29.125C217.006 29.125 216.724 29.2203 216.508 29.411C216.3 29.6017 216.157 29.8703 216.079 30.217H218.627ZM224.363 34.182C223.488 34.182 222.76 33.9653 222.179 33.532C221.607 33.09 221.252 32.518 221.113 31.816L222.79 31.114C222.92 31.582 223.119 31.9373 223.388 32.18C223.657 32.4227 223.986 32.544 224.376 32.544C224.792 32.544 225.121 32.44 225.364 32.232C225.615 32.024 225.741 31.725 225.741 31.335C225.741 30.997 225.624 30.737 225.39 30.555C225.156 30.3643 224.809 30.269 224.35 30.269H223.7V28.683H224.298C224.662 28.683 224.961 28.5877 225.195 28.397C225.438 28.2063 225.559 27.9203 225.559 27.539C225.559 27.2443 225.446 26.9973 225.221 26.798C224.996 26.5987 224.697 26.499 224.324 26.499C223.587 26.499 223.098 26.85 222.855 27.552L221.256 26.889C221.464 26.265 221.819 25.771 222.322 25.407C222.833 25.043 223.496 24.861 224.311 24.861C225.299 24.861 226.066 25.0863 226.612 25.537C227.158 25.9877 227.431 26.5943 227.431 27.357C227.431 28.2063 227.05 28.8433 226.287 29.268C226.694 29.4327 227.015 29.6927 227.249 30.048C227.492 30.3947 227.613 30.841 227.613 31.387C227.613 32.2277 227.331 32.9037 226.768 33.415C226.205 33.9263 225.403 34.182 224.363 34.182ZM234.936 32.362V34H228.761V33.493C228.761 32.7217 228.886 32.0803 229.138 31.569C229.398 31.049 229.71 30.6373 230.074 30.334C230.446 30.0307 230.936 29.7013 231.543 29.346C232.132 28.9993 232.522 28.696 232.713 28.436C232.903 28.1673 232.999 27.8813 232.999 27.578C232.999 27.2487 232.886 26.9843 232.661 26.785C232.444 26.5857 232.128 26.486 231.712 26.486C231.356 26.486 231.04 26.603 230.763 26.837C230.494 27.0623 230.282 27.3873 230.126 27.812L228.605 26.954C228.83 26.33 229.203 25.823 229.723 25.433C230.251 25.043 230.945 24.848 231.803 24.848C232.739 24.848 233.484 25.0993 234.039 25.602C234.593 26.096 234.871 26.7633 234.871 27.604C234.871 28.2367 234.689 28.7913 234.325 29.268C233.969 29.7447 233.367 30.2257 232.518 30.711C232.024 30.997 231.638 31.2743 231.361 31.543C231.083 31.803 230.906 32.076 230.828 32.362H234.936Z" fill="white"/>
</svg>
