<svg width="295" height="204" viewBox="0 0 295 204" fill="none" xmlns="http://www.w3.org/2000/svg">
<rect x="32" width="263" height="204" rx="25" fill="#132222"/>
<rect x="36" y="4" width="255" height="196" rx="23" fill="#091010"/>
<path d="M81 35C81 30.5817 84.5817 27 89 27H239C243.418 27 247 30.5817 247 35V117C247 121.418 243.418 125 239 125H89C84.5817 125 81 121.418 81 117V35Z" fill="#A1FFDE"/>
<rect x="4" y="15" width="95" height="30" rx="8" fill="#447777"/>
<path d="M40.8 36.28C39.2933 36.28 38.0733 35.86 37.14 35.02C36.22 34.18 35.76 32.9467 35.76 31.32C35.76 30.2133 35.98 29.2867 36.42 28.54C36.86 27.78 37.4333 27.22 38.14 26.86C38.86 26.5 39.6267 26.32 40.44 26.32C41.9467 26.32 43.0667 26.7667 43.8 27.66C44.5333 28.5533 44.9 29.7133 44.9 31.14C44.9 31.4467 44.88 31.76 44.84 32.08H38.48C38.6133 32.6933 38.8867 33.1733 39.3 33.52C39.7133 33.8667 40.24 34.04 40.88 34.04C41.3333 34.04 41.74 33.96 42.1 33.8C42.46 33.64 42.8067 33.3933 43.14 33.06L44.56 34.86C44.0933 35.3 43.56 35.6467 42.96 35.9C42.36 36.1533 41.64 36.28 40.8 36.28ZM42.42 30.18C42.2733 29.06 41.62 28.5 40.46 28.5C39.9267 28.5 39.4933 28.6467 39.16 28.94C38.84 29.2333 38.62 29.6467 38.5 30.18H42.42ZM51.9534 36H48.6734L45.5134 26.6H48.4734L50.3134 33.04L52.1534 26.6H55.1134L51.9534 36ZM60.7609 36.28C59.2543 36.28 58.0343 35.86 57.1009 35.02C56.1809 34.18 55.7209 32.9467 55.7209 31.32C55.7209 30.2133 55.9409 29.2867 56.3809 28.54C56.8209 27.78 57.3943 27.22 58.1009 26.86C58.8209 26.5 59.5876 26.32 60.4009 26.32C61.9076 26.32 63.0276 26.7667 63.7609 27.66C64.4943 28.5533 64.8609 29.7133 64.8609 31.14C64.8609 31.4467 64.8409 31.76 64.8009 32.08H58.4409C58.5743 32.6933 58.8476 33.1733 59.2609 33.52C59.6743 33.8667 60.2009 34.04 60.8409 34.04C61.2943 34.04 61.7009 33.96 62.0609 33.8C62.4209 33.64 62.7676 33.3933 63.1009 33.06L64.5209 34.86C64.0543 35.3 63.5209 35.6467 62.9209 35.9C62.3209 36.1533 61.6009 36.28 60.7609 36.28ZM62.3809 30.18C62.2343 29.06 61.5809 28.5 60.4209 28.5C59.8876 28.5 59.4543 28.6467 59.1209 28.94C58.8009 29.2333 58.5809 29.6467 58.4609 30.18H62.3809ZM66.8259 36V26.6H69.3859L69.5859 27.9C69.8526 27.4333 70.2126 27.0533 70.6659 26.76C71.1326 26.4667 71.6926 26.32 72.3459 26.32C73.3593 26.32 74.1126 26.62 74.6059 27.22C75.0993 27.8067 75.3459 28.6 75.3459 29.6V36H72.5859V30.1C72.5859 29.6733 72.4726 29.3333 72.2459 29.08C72.0326 28.8133 71.7326 28.68 71.3459 28.68C70.9726 28.68 70.6193 28.7933 70.2859 29.02C69.9659 29.2467 69.7326 29.5133 69.5859 29.82V36H66.8259ZM81.55 36.28C80.4567 36.28 79.65 36.0067 79.13 35.46C78.61 34.9133 78.35 34.0533 78.35 32.88V28.96H76.69V26.6H78.35V24.16L81.13 23.36V26.6H83.41V28.96H81.13V32.58C81.13 33.0067 81.21 33.34 81.37 33.58C81.53 33.8067 81.83 33.92 82.27 33.92C82.6967 33.92 83.0767 33.78 83.41 33.5V35.8C82.9567 36.12 82.3367 36.28 81.55 36.28ZM88.5444 36.28C87.7177 36.28 86.9444 36.12 86.2244 35.8C85.5177 35.48 84.9644 35 84.5644 34.36L86.3644 32.86C86.671 33.2867 87.0044 33.6133 87.3644 33.84C87.7377 34.0533 88.1844 34.16 88.7044 34.16C89.051 34.16 89.3377 34.0933 89.5644 33.96C89.8044 33.8133 89.9244 33.6133 89.9244 33.36C89.9244 33.0933 89.8044 32.8733 89.5644 32.7C89.3244 32.5133 88.9244 32.3667 88.3644 32.26L87.7444 32.14C86.851 31.9667 86.1577 31.6667 85.6644 31.24C85.171 30.8 84.9244 30.1667 84.9244 29.34C84.9244 28.34 85.2777 27.5867 85.9844 27.08C86.691 26.5733 87.611 26.32 88.7444 26.32C89.571 26.32 90.2644 26.46 90.8244 26.74C91.3977 27.0067 91.8844 27.3933 92.2844 27.9L90.4844 29.42C90.2577 29.1133 89.971 28.8733 89.6244 28.7C89.291 28.5267 88.9444 28.44 88.5844 28.44C88.2777 28.44 88.011 28.5067 87.7844 28.64C87.5577 28.76 87.4444 28.9333 87.4444 29.16C87.4444 29.3867 87.571 29.5733 87.8244 29.72C88.091 29.8667 88.5444 29.9933 89.1844 30.1L89.6444 30.18C91.5644 30.5133 92.5244 31.4667 92.5244 33.04C92.5244 34.08 92.1644 34.88 91.4444 35.44C90.7244 36 89.7577 36.28 88.5444 36.28Z" fill="white"/>
<path d="M14.4167 19.9167C14.6598 19.9167 14.893 20.0132 15.0649 20.1852C15.2368 20.3571 15.3334 20.5902 15.3334 20.8333V21.5208C15.3334 21.6492 15.4342 21.75 15.5625 21.75H22.4375C22.5659 21.75 22.6667 21.6492 22.6667 21.5208V20.8333C22.6667 20.5902 22.7633 20.3571 22.9352 20.1852C23.1071 20.0132 23.3403 19.9167 23.5834 19.9167C23.8265 19.9167 24.0596 20.0132 24.2316 20.1852C24.4035 20.3571 24.5 20.5902 24.5 20.8333V21.5208C24.5 21.6492 24.6009 21.75 24.7292 21.75H25.4167C26.1461 21.75 26.8455 22.0397 27.3613 22.5555C27.877 23.0712 28.1667 23.7707 28.1667 24.5C28.1667 24.7431 28.0701 24.9763 27.8982 25.1482C27.7263 25.3201 27.4932 25.4167 27.25 25.4167H10.75C10.5069 25.4167 10.2738 25.3201 10.1019 25.1482C9.92995 24.9763 9.83337 24.7431 9.83337 24.5C9.83337 23.7707 10.1231 23.0712 10.6388 22.5555C11.1546 22.0397 11.854 21.75 12.5834 21.75H13.2709C13.3992 21.75 13.5 21.6492 13.5 21.5208V20.8333C13.5 20.5902 13.5966 20.3571 13.7685 20.1852C13.9404 20.0132 14.1736 19.9167 14.4167 19.9167Z" fill="white"/>
<path fill-rule="evenodd" clip-rule="evenodd" d="M9.83337 28.1667C9.83337 27.9236 9.92995 27.6904 10.1019 27.5185C10.2738 27.3466 10.5069 27.25 10.75 27.25H27.25C27.4932 27.25 27.7263 27.3466 27.8982 27.5185C28.0701 27.6904 28.1667 27.9236 28.1667 28.1667V36.4167C28.1667 37.146 27.877 37.8455 27.3613 38.3612C26.8455 38.8769 26.1461 39.1667 25.4167 39.1667H12.5834C11.854 39.1667 11.1546 38.8769 10.6388 38.3612C10.1231 37.8455 9.83337 37.146 9.83337 36.4167V28.1667ZM13.0417 30C12.9201 30 12.8036 30.0483 12.7176 30.1342C12.6317 30.2202 12.5834 30.3368 12.5834 30.4583V33.2083C12.5834 33.465 12.785 33.6667 13.0417 33.6667H15.7917C15.9133 33.6667 16.0298 33.6184 16.1158 33.5324C16.2018 33.4465 16.25 33.3299 16.25 33.2083V30.4583C16.25 30.3368 16.2018 30.2202 16.1158 30.1342C16.0298 30.0483 15.9133 30 15.7917 30H13.0417Z" fill="white"/>
<rect x="4" y="50" width="95" height="30" rx="8" fill="#447777"/>
<path d="M39.56 71.28C38.7333 71.28 37.96 71.12 37.24 70.8C36.5333 70.48 35.98 70 35.58 69.36L37.38 67.86C37.6867 68.2867 38.02 68.6133 38.38 68.84C38.7533 69.0533 39.2 69.16 39.72 69.16C40.0667 69.16 40.3533 69.0933 40.58 68.96C40.82 68.8133 40.94 68.6133 40.94 68.36C40.94 68.0933 40.82 67.8733 40.58 67.7C40.34 67.5133 39.94 67.3667 39.38 67.26L38.76 67.14C37.8667 66.9667 37.1733 66.6667 36.68 66.24C36.1867 65.8 35.94 65.1667 35.94 64.34C35.94 63.34 36.2933 62.5867 37 62.08C37.7067 61.5733 38.6267 61.32 39.76 61.32C40.5867 61.32 41.28 61.46 41.84 61.74C42.4133 62.0067 42.9 62.3933 43.3 62.9L41.5 64.42C41.2733 64.1133 40.9867 63.8733 40.64 63.7C40.3067 63.5267 39.96 63.44 39.6 63.44C39.2933 63.44 39.0267 63.5067 38.8 63.64C38.5733 63.76 38.46 63.9333 38.46 64.16C38.46 64.3867 38.5867 64.5733 38.84 64.72C39.1067 64.8667 39.56 64.9933 40.2 65.1L40.66 65.18C42.58 65.5133 43.54 66.4667 43.54 68.04C43.54 69.08 43.18 69.88 42.46 70.44C41.74 71 40.7733 71.28 39.56 71.28ZM49.2453 71.28C48.152 71.28 47.3453 71.0067 46.8253 70.46C46.3053 69.9133 46.0453 69.0533 46.0453 67.88V63.96H44.3853V61.6H46.0453V59.16L48.8253 58.36V61.6H51.1053V63.96H48.8253V67.58C48.8253 68.0067 48.9053 68.34 49.0653 68.58C49.2253 68.8067 49.5253 68.92 49.9653 68.92C50.392 68.92 50.772 68.78 51.1053 68.5V70.8C50.652 71.12 50.032 71.28 49.2453 71.28ZM55.5597 71.28C54.7064 71.28 54.013 71.0267 53.4797 70.52C52.9464 70 52.6797 69.3 52.6797 68.42C52.6797 67.3533 53.1597 66.5667 54.1197 66.06C55.093 65.54 56.4597 65.2667 58.2197 65.24V65.18C58.2197 64.7 58.0597 64.3133 57.7397 64.02C57.433 63.7267 57.0264 63.58 56.5197 63.58C56.133 63.58 55.7264 63.6533 55.2997 63.8C54.8864 63.9467 54.493 64.1867 54.1197 64.52L52.8397 62.82C53.3197 62.3267 53.893 61.9533 54.5597 61.7C55.2264 61.4467 55.953 61.32 56.7397 61.32C59.5664 61.32 60.9797 62.6067 60.9797 65.18V71H58.3997L58.2197 69.98C57.5664 70.8467 56.6797 71.28 55.5597 71.28ZM56.3197 69.12C56.7197 69.12 57.0664 69.04 57.3597 68.88C57.6664 68.7067 57.953 68.4867 58.2197 68.22V66.96C56.313 67.0533 55.3597 67.4933 55.3597 68.28C55.3597 68.56 55.4464 68.7733 55.6197 68.92C55.793 69.0533 56.0264 69.12 56.3197 69.12ZM67.2466 75.08C65.8332 75.08 64.7132 74.8533 63.8866 74.4C63.0599 73.9467 62.6466 73.2667 62.6466 72.36C62.6466 71.56 63.0132 70.9467 63.7466 70.52C63.3066 70.12 63.0866 69.62 63.0866 69.02C63.0866 68.1533 63.5399 67.5 64.4466 67.06C63.7666 66.46 63.4266 65.66 63.4266 64.66C63.4266 63.6867 63.7599 62.8867 64.4266 62.26C65.1066 61.6333 66.0466 61.32 67.2466 61.32C67.8599 61.32 68.4266 61.4133 68.9466 61.6L70.5466 59.84L72.0666 61.54L70.4866 62.76C70.8732 63.3067 71.0666 63.94 71.0666 64.66C71.0666 65.6333 70.7266 66.4333 70.0466 67.06C69.3799 67.6867 68.4466 68 67.2466 68C66.7132 68 66.2132 67.9267 65.7466 67.78C65.4666 67.9267 65.3266 68.1267 65.3266 68.38C65.3266 68.8733 65.7799 69.12 66.6866 69.12H68.8866C69.7399 69.12 70.4532 69.3467 71.0266 69.8C71.5999 70.2533 71.8866 70.8867 71.8866 71.7C71.8866 72.8333 71.4799 73.68 70.6666 74.24C69.8666 74.8 68.7266 75.08 67.2466 75.08ZM67.2466 66.12C67.6599 66.12 67.9866 65.9933 68.2266 65.74C68.4666 65.4733 68.5866 65.1133 68.5866 64.66C68.5866 64.2067 68.4666 63.8533 68.2266 63.6C67.9866 63.3333 67.6599 63.2 67.2466 63.2C66.8332 63.2 66.5066 63.3333 66.2666 63.6C66.0266 63.8533 65.9066 64.2067 65.9066 64.66C65.9066 65.1133 66.0266 65.4733 66.2666 65.74C66.5066 65.9933 66.8332 66.12 67.2466 66.12ZM67.2466 73.18C68.0466 73.18 68.6266 73.0867 68.9866 72.9C69.3466 72.7133 69.5266 72.4333 69.5266 72.06C69.5266 71.8067 69.4332 71.6133 69.2466 71.48C69.0732 71.3467 68.8399 71.28 68.5466 71.28H66.2066C65.9399 71.28 65.6066 71.2533 65.2066 71.2C65.0466 71.3867 64.9666 71.6133 64.9666 71.88C64.9666 72.3067 65.1599 72.6267 65.5466 72.84C65.9332 73.0667 66.4999 73.18 67.2466 73.18ZM77.8117 71.28C76.3051 71.28 75.0851 70.86 74.1517 70.02C73.2317 69.18 72.7717 67.9467 72.7717 66.32C72.7717 65.2133 72.9917 64.2867 73.4317 63.54C73.8717 62.78 74.4451 62.22 75.1517 61.86C75.8717 61.5 76.6384 61.32 77.4517 61.32C78.9584 61.32 80.0784 61.7667 80.8117 62.66C81.5451 63.5533 81.9117 64.7133 81.9117 66.14C81.9117 66.4467 81.8917 66.76 81.8517 67.08H75.4917C75.6251 67.6933 75.8984 68.1733 76.3117 68.52C76.7251 68.8667 77.2517 69.04 77.8917 69.04C78.3451 69.04 78.7517 68.96 79.1117 68.8C79.4717 68.64 79.8184 68.3933 80.1517 68.06L81.5717 69.86C81.1051 70.3 80.5717 70.6467 79.9717 70.9C79.3717 71.1533 78.6517 71.28 77.8117 71.28ZM79.4317 65.18C79.2851 64.06 78.6317 63.5 77.4717 63.5C76.9384 63.5 76.5051 63.6467 76.1717 63.94C75.8517 64.2333 75.6317 64.6467 75.5117 65.18H79.4317Z" fill="white"/>
<g clip-path="url(#clip0_18_253)">
<path d="M26.9759 70.7292C26.8304 70.5624 26.7451 70.3516 26.7335 70.1306C26.7218 69.9097 26.7846 69.6911 26.9117 69.51C27.7247 68.2653 28.1863 66.8241 28.2476 65.3387C28.3089 63.8533 27.9677 62.3789 27.2601 61.0714C26.5524 59.764 25.5046 58.6721 24.2275 57.9111C22.9503 57.1501 21.4913 56.7484 20.0046 56.7484C18.5179 56.7484 17.0589 57.1501 15.7817 57.9111C14.5046 58.6721 13.4568 59.764 12.7492 61.0714C12.0415 62.3789 11.7003 63.8533 11.7616 65.3387C11.823 66.8241 12.2845 68.2653 13.0975 69.51C13.3359 69.895 13.3267 70.3992 13.0242 70.7292L13.0059 70.7475C12.63 71.1508 11.9792 71.1417 11.6675 70.6833C10.6332 69.1682 10.0319 67.3997 9.92822 65.5681C9.82456 63.7366 10.2225 61.9114 11.0792 60.2893C11.936 58.6672 13.219 57.3095 14.7901 56.3625C16.3612 55.4154 18.161 54.915 19.9954 54.915C21.8299 54.915 23.6296 55.4154 25.2008 56.3625C26.7719 57.3095 28.0549 58.6672 28.9117 60.2893C29.7684 61.9114 30.1663 63.7366 30.0627 65.5681C29.959 67.3997 29.3576 69.1682 28.3234 70.6833C28.0209 71.1417 27.37 71.1508 26.9942 70.7475L26.9759 70.7292Z" fill="white"/>
<path d="M24.4275 67.9608C24.8217 68.3917 25.5092 68.3458 25.7567 67.8325C26.2364 66.8542 26.4591 65.7699 26.4038 64.6818C26.3485 63.5936 26.0171 62.5374 25.4407 61.6128C24.8643 60.6882 24.0619 59.9256 23.1093 59.3968C22.1566 58.8681 21.085 58.5907 19.9954 58.5907C18.9058 58.5907 17.8342 58.8681 16.8815 59.3968C15.9289 59.9256 15.1265 60.6882 14.5501 61.6128C13.9737 62.5374 13.6423 63.5936 13.587 64.6818C13.5317 65.7699 13.7544 66.8542 14.2342 67.8325C14.4908 68.3458 15.1783 68.3825 15.5725 67.9608L15.6183 67.9058C15.8933 67.6033 15.9392 67.1633 15.7742 66.7783C15.4759 66.0817 15.3557 65.3218 15.4245 64.5672C15.4933 63.8125 15.7489 63.0869 16.1682 62.4557C16.5875 61.8245 17.1573 61.3076 17.8262 60.9516C18.4952 60.5956 19.2422 60.4118 20 60.4167C20.7553 60.4179 21.4986 60.6058 22.1638 60.9637C22.829 61.3215 23.3954 61.8382 23.8127 62.4678C24.23 63.0974 24.4852 63.8203 24.5557 64.5724C24.6262 65.3244 24.5097 66.0822 24.2167 66.7783C24.0608 67.1633 24.0975 67.6033 24.3817 67.9058L24.4275 67.9608Z" fill="white"/>
<path d="M22.75 65C22.75 65.7293 22.4603 66.4288 21.9446 66.9445C21.4289 67.4603 20.7294 67.75 20 67.75C19.2707 67.75 18.5712 67.4603 18.0555 66.9445C17.5398 66.4288 17.25 65.7293 17.25 65C17.25 64.2707 17.5398 63.5712 18.0555 63.0555C18.5712 62.5397 19.2707 62.25 20 62.25C20.7294 62.25 21.4289 62.5397 21.9446 63.0555C22.4603 63.5712 22.75 64.2707 22.75 65ZM14.8025 72.3608C14.5734 73.0208 14.9125 73.7358 15.5359 74.0475C16.9222 74.7342 18.4484 75.0915 19.9955 75.0915C21.5425 75.0915 23.0687 74.7342 24.455 74.0475C24.7613 73.9034 25.0046 73.6527 25.1395 73.3424C25.2745 73.032 25.2918 72.6831 25.1884 72.3608C24.8124 71.2833 24.1105 70.3495 23.1801 69.6887C22.2496 69.0279 21.1367 68.6729 19.9955 68.6729C18.8542 68.6729 17.7413 69.0279 16.8108 69.6887C15.8804 70.3495 15.1785 71.2833 14.8025 72.3608Z" fill="white"/>
</g>
<circle cx="164" cy="171" r="15" fill="#2B2D31"/>
<circle cx="123" cy="171" r="15" fill="#2B2D31"/>
<path d="M126.015 164.295C126.044 164.177 126.051 164.055 126.033 163.935C126.015 163.815 125.974 163.699 125.912 163.595C125.786 163.385 125.581 163.233 125.344 163.174C125.226 163.144 125.104 163.138 124.984 163.156C124.864 163.174 124.748 163.215 124.644 163.277C124.434 163.403 124.282 163.607 124.222 163.845L122.617 169.665L122.16 169.485L122.782 164.257C122.797 164.019 122.721 163.785 122.57 163.6C122.419 163.416 122.203 163.295 121.967 163.263C121.731 163.231 121.491 163.289 121.296 163.426C121.101 163.563 120.965 163.769 120.915 164.002L120.097 169.237L119.745 171.382C119.734 171.45 119.702 171.512 119.653 171.559C119.604 171.606 119.541 171.636 119.473 171.645C119.405 171.653 119.337 171.64 119.278 171.606C119.219 171.572 119.172 171.52 119.145 171.457L118.65 170.355C118.367 169.733 117.876 169.229 117.262 168.93L117.022 168.802C116.78 168.683 116.504 168.654 116.242 168.718C115.98 168.783 115.749 168.937 115.59 169.155C115.538 169.224 115.507 169.307 115.501 169.393C115.494 169.48 115.512 169.566 115.552 169.642L116.55 171.517C116.595 171.607 116.64 171.697 116.67 171.795L117.615 174.877C117.965 176.024 118.673 177.027 119.635 177.741C120.597 178.455 121.763 178.842 122.962 178.844C124.16 178.847 125.327 178.465 126.293 177.755C127.258 177.045 127.97 176.045 128.325 174.9L129.037 172.612L130.425 169.342C130.5 169.131 130.492 168.898 130.403 168.692C130.314 168.486 130.15 168.32 129.944 168.229C129.739 168.139 129.507 168.128 129.294 168.201C129.081 168.274 128.904 168.425 128.797 168.622L127.447 171.525L127.027 171.36L128.827 165.63C128.883 165.415 128.856 165.188 128.75 164.993C128.645 164.798 128.47 164.65 128.26 164.578C128.05 164.507 127.821 164.518 127.619 164.609C127.417 164.699 127.256 164.863 127.17 165.067L125.085 170.617L124.582 170.422L126.007 164.295H126.015Z" fill="white"/>
<g clip-path="url(#clip1_18_253)">
<mask id="mask0_18_253" style="mask-type:luminance" maskUnits="userSpaceOnUse" x="155" y="162" width="18" height="18">
<path d="M173 162H155V180H173V162Z" fill="white"/>
</mask>
<g mask="url(#mask0_18_253)">
<mask id="mask1_18_253" style="mask-type:luminance" maskUnits="userSpaceOnUse" x="155" y="162" width="18" height="18">
<path d="M155 162H173V180H155V162Z" fill="white"/>
</mask>
<g mask="url(#mask1_18_253)">
<mask id="mask2_18_253" style="mask-type:luminance" maskUnits="userSpaceOnUse" x="149" y="156" width="30" height="30">
<path d="M149 156H179V186H149V156Z" fill="white"/>
</mask>
<g mask="url(#mask2_18_253)">
<mask id="mask3_18_253" style="mask-type:luminance" maskUnits="userSpaceOnUse" x="155" y="152" width="30" height="28">
<path d="M173 162H155V180H173V162Z" fill="white"/>
<path d="M179.757 153.384L174.611 158.632C174.611 158.632 172.693 160.657 174.174 162.146C175.79 163.77 177.73 161.732 177.73 161.732L182.876 156.483C182.876 156.483 185.36 154.02 183.806 152.533C182.263 151.057 179.757 153.384 179.757 153.384Z" fill="black"/>
<path d="M169.94 168.15H168.26V170.37H169.94V168.15Z" fill="white"/>
</mask>
<g mask="url(#mask3_18_253)">
<path d="M167 166.47C167 164.813 165.657 163.47 164 163.47C162.343 163.47 161 164.813 161 166.47V169.44C161 171.097 162.343 172.44 164 172.44C165.657 172.44 167 171.097 167 169.44V166.47Z" fill="white"/>
<path d="M169.25 169.44C169.25 172.34 166.899 174.69 164 174.69C161.101 174.69 158.75 172.34 158.75 169.44" stroke="white" stroke-width="2" stroke-linecap="round"/>
<path d="M164.75 174.69C164.75 174.483 164.582 174.315 164.375 174.315H163.625C163.418 174.315 163.25 174.483 163.25 174.69V177.69C163.25 177.897 163.418 178.065 163.625 178.065H164.375C164.582 178.065 164.75 177.897 164.75 177.69V174.69Z" fill="white"/>
<path d="M161.75 176.94C161.336 176.94 161 177.276 161 177.69C161 178.104 161.336 178.44 161.75 178.44H166.25C166.664 178.44 167 178.104 167 177.69C167 177.276 166.664 176.94 166.25 176.94H161.75Z" fill="white"/>
</g>
</g>
</g>
</g>
</g>
<circle cx="205" cy="171" r="15" fill="#DA363C"/>
<g clip-path="url(#clip2_18_253)">
<mask id="mask4_18_253" style="mask-type:luminance" maskUnits="userSpaceOnUse" x="196" y="162" width="18" height="18">
<path d="M214 162H196V180H214V162Z" fill="white"/>
</mask>
<g mask="url(#mask4_18_253)">
<mask id="mask5_18_253" style="mask-type:luminance" maskUnits="userSpaceOnUse" x="196" y="162" width="18" height="18">
<path d="M196 162H214V180H196V162Z" fill="white"/>
</mask>
<g mask="url(#mask5_18_253)">
<path d="M212.001 169.629C208.139 165.767 201.877 165.767 198.015 169.629C196.232 171.413 196.487 173.695 197.833 175.042C198.024 175.233 198.318 175.277 198.558 175.15L201.798 173.435C202.097 173.277 202.238 172.925 202.131 172.604L201.582 170.958C203.631 169.494 206.385 169.494 208.434 170.958L207.861 173.061C207.77 173.398 207.943 173.75 208.266 173.883L211.477 175.205C211.71 175.301 211.977 175.247 212.155 175.069C213.499 173.725 213.782 171.409 212.001 169.629Z" fill="white"/>
</g>
</g>
</g>
<rect x="85" y="103" width="71" height="18" rx="4" fill="black" fill-opacity="0.33"/>
<path d="M92.329 116.182C91.575 116.182 90.9077 115.987 90.327 115.597C89.7463 115.207 89.2957 114.661 88.975 113.959C88.6543 113.248 88.494 112.434 88.494 111.515C88.494 110.605 88.663 109.799 89.001 109.097C89.3477 108.395 89.846 107.845 90.496 107.446C91.1547 107.047 91.939 106.848 92.849 106.848C93.6203 106.848 94.3093 107.013 94.916 107.342C95.5313 107.671 95.995 108.135 96.307 108.733L94.838 109.786C94.396 108.971 93.7373 108.564 92.862 108.564C92.0647 108.564 91.4537 108.824 91.029 109.344C90.6043 109.855 90.392 110.579 90.392 111.515C90.392 112.46 90.6043 113.188 91.029 113.699C91.4537 114.21 92.0647 114.466 92.862 114.466C93.2173 114.466 93.5423 114.401 93.837 114.271C94.1403 114.132 94.3743 113.946 94.539 113.712V112.594H92.472V110.904H96.385V116H94.851L94.604 115.142C94.0927 115.835 93.3343 116.182 92.329 116.182ZM97.972 116V109.89H99.584L99.753 110.787C99.9177 110.432 100.13 110.163 100.39 109.981C100.659 109.799 100.997 109.708 101.404 109.708C101.655 109.708 101.837 109.738 101.95 109.799V111.515C101.673 111.402 101.378 111.346 101.066 111.346C100.797 111.346 100.542 111.433 100.299 111.606C100.056 111.771 99.8743 112.005 99.753 112.308V116H97.972ZM104.601 116.182C104.046 116.182 103.596 116.017 103.249 115.688C102.902 115.35 102.729 114.895 102.729 114.323C102.729 113.63 103.041 113.118 103.665 112.789C104.298 112.451 105.186 112.273 106.33 112.256V112.217C106.33 111.905 106.226 111.654 106.018 111.463C105.819 111.272 105.554 111.177 105.225 111.177C104.974 111.177 104.709 111.225 104.432 111.32C104.163 111.415 103.908 111.571 103.665 111.788L102.833 110.683C103.145 110.362 103.518 110.12 103.951 109.955C104.384 109.79 104.857 109.708 105.368 109.708C107.205 109.708 108.124 110.544 108.124 112.217V116H106.447L106.33 115.337C105.905 115.9 105.329 116.182 104.601 116.182ZM105.095 114.778C105.355 114.778 105.58 114.726 105.771 114.622C105.97 114.509 106.157 114.366 106.33 114.193V113.374C105.091 113.435 104.471 113.721 104.471 114.232C104.471 114.414 104.527 114.553 104.64 114.648C104.753 114.735 104.904 114.778 105.095 114.778ZM109.741 116V109.89H111.405L111.535 110.735C111.708 110.432 111.942 110.185 112.237 109.994C112.54 109.803 112.904 109.708 113.329 109.708C113.987 109.708 114.477 109.903 114.798 110.293C115.118 110.674 115.279 111.19 115.279 111.84V116H113.485V112.165C113.485 111.888 113.411 111.667 113.264 111.502C113.125 111.329 112.93 111.242 112.679 111.242C112.436 111.242 112.206 111.316 111.99 111.463C111.782 111.61 111.63 111.784 111.535 111.983V116H109.741ZM119.267 116.182C118.773 116.182 118.322 116.056 117.915 115.805C117.508 115.554 117.183 115.185 116.94 114.7C116.697 114.206 116.576 113.621 116.576 112.945C116.576 112.269 116.697 111.688 116.94 111.203C117.183 110.709 117.508 110.336 117.915 110.085C118.322 109.834 118.773 109.708 119.267 109.708C119.856 109.708 120.35 109.868 120.749 110.189V106.51H122.543V116H121.009L120.905 115.415C120.68 115.666 120.437 115.857 120.177 115.987C119.917 116.117 119.614 116.182 119.267 116.182ZM119.761 114.648C120.151 114.648 120.48 114.488 120.749 114.167V111.71C120.489 111.398 120.16 111.242 119.761 111.242C119.345 111.242 119.007 111.398 118.747 111.71C118.496 112.022 118.37 112.434 118.37 112.945C118.37 113.456 118.496 113.868 118.747 114.18C119.007 114.492 119.345 114.648 119.761 114.648ZM126.126 116H124.254V107.03H126.62L130.026 113.348V107.03H131.898V116H129.558L126.126 109.656V116ZM136.572 116.182C135.592 116.182 134.799 115.909 134.193 115.363C133.595 114.817 133.296 114.015 133.296 112.958C133.296 112.239 133.439 111.636 133.725 111.151C134.011 110.657 134.383 110.293 134.843 110.059C135.311 109.825 135.809 109.708 136.338 109.708C137.317 109.708 138.045 109.998 138.522 110.579C138.998 111.16 139.237 111.914 139.237 112.841C139.237 113.04 139.224 113.244 139.198 113.452H135.064C135.15 113.851 135.328 114.163 135.597 114.388C135.865 114.613 136.208 114.726 136.624 114.726C136.918 114.726 137.183 114.674 137.417 114.57C137.651 114.466 137.876 114.306 138.093 114.089L139.016 115.259C138.712 115.545 138.366 115.77 137.976 115.935C137.586 116.1 137.118 116.182 136.572 116.182ZM137.625 112.217C137.529 111.489 137.105 111.125 136.351 111.125C136.004 111.125 135.722 111.22 135.506 111.411C135.298 111.602 135.155 111.87 135.077 112.217H137.625ZM140.514 116V109.89H142.126L142.295 110.787C142.46 110.432 142.672 110.163 142.932 109.981C143.201 109.799 143.539 109.708 143.946 109.708C144.197 109.708 144.379 109.738 144.492 109.799V111.515C144.215 111.402 143.92 111.346 143.608 111.346C143.339 111.346 143.084 111.433 142.841 111.606C142.598 111.771 142.416 112.005 142.295 112.308V116H140.514ZM147.857 116.182C147.363 116.182 146.912 116.056 146.505 115.805C146.098 115.554 145.773 115.185 145.53 114.7C145.287 114.206 145.166 113.621 145.166 112.945C145.166 112.269 145.287 111.688 145.53 111.203C145.773 110.709 146.098 110.336 146.505 110.085C146.912 109.834 147.363 109.708 147.857 109.708C148.446 109.708 148.94 109.868 149.339 110.189V106.51H151.133V116H149.599L149.495 115.415C149.27 115.666 149.027 115.857 148.767 115.987C148.507 116.117 148.204 116.182 147.857 116.182ZM148.351 114.648C148.741 114.648 149.07 114.488 149.339 114.167V111.71C149.079 111.398 148.75 111.242 148.351 111.242C147.935 111.242 147.597 111.398 147.337 111.71C147.086 112.022 146.96 112.434 146.96 112.945C146.96 113.456 147.086 113.868 147.337 114.18C147.597 114.492 147.935 114.648 148.351 114.648Z" fill="white"/>
<circle cx="164" cy="73" r="20" fill="#28977B"/>
<circle cx="164" cy="73" r="19" fill="#4BB494"/>
<defs>
<clipPath id="clip0_18_253">
<rect width="22" height="22" fill="white" transform="translate(9 54)"/>
</clipPath>
<clipPath id="clip1_18_253">
<rect width="18" height="18" fill="white" transform="translate(155 162)"/>
</clipPath>
<clipPath id="clip2_18_253">
<rect width="18" height="18" fill="white" transform="translate(196 162)"/>
</clipPath>
</defs>
</svg>
