<svg width="295" height="204" viewBox="0 0 295 204" fill="none" xmlns="http://www.w3.org/2000/svg">
<rect x="34" width="261" height="204" rx="25" fill="#132222"/>
<path d="M38 27C38 14.2975 48.2975 4 61 4H86C98.7025 4 109 14.2975 109 27V143C109 148.523 104.523 153 99 153H48C42.4772 153 38 148.523 38 143V27Z" fill="#103939"/>
<rect x="4" y="15" width="91" height="30" rx="8" fill="#447777"/>
<path d="M36.24 36V26.6H38.8L39 27.9C39.2667 27.4333 39.6267 27.0533 40.08 26.76C40.5467 26.4667 41.1067 26.32 41.76 26.32C42.7733 26.32 43.5267 26.62 44.02 27.22C44.5133 27.8067 44.76 28.6 44.76 29.6V36H42V30.1C42 29.6733 41.8867 29.3333 41.66 29.08C41.4467 28.8133 41.1467 28.68 40.76 28.68C40.3867 28.68 40.0333 28.7933 39.7 29.02C39.38 29.2467 39.1467 29.5133 39 29.82V36H36.24ZM51.7961 36.28C50.2894 36.28 49.0694 35.86 48.1361 35.02C47.2161 34.18 46.7561 32.9467 46.7561 31.32C46.7561 30.2133 46.9761 29.2867 47.4161 28.54C47.8561 27.78 48.4294 27.22 49.1361 26.86C49.8561 26.5 50.6228 26.32 51.4361 26.32C52.9428 26.32 54.0628 26.7667 54.7961 27.66C55.5294 28.5533 55.8961 29.7133 55.8961 31.14C55.8961 31.4467 55.8761 31.76 55.8361 32.08H49.4761C49.6094 32.6933 49.8828 33.1733 50.2961 33.52C50.7094 33.8667 51.2361 34.04 51.8761 34.04C52.3294 34.04 52.7361 33.96 53.0961 33.8C53.4561 33.64 53.8028 33.3933 54.1361 33.06L55.5561 34.86C55.0894 35.3 54.5561 35.6467 53.9561 35.9C53.3561 36.1533 52.6361 36.28 51.7961 36.28ZM53.4161 30.18C53.2694 29.06 52.6161 28.5 51.4561 28.5C50.9228 28.5 50.4894 28.6467 50.1561 28.94C49.8361 29.2333 49.6161 29.6467 49.4961 30.18H53.4161ZM62.5011 36H59.4011L56.8611 26.6H59.6411L61.1211 32.84L62.7211 26.6H65.6011L67.2011 32.84L68.6811 26.6H71.4611L68.9211 36H65.8211L64.1611 29.86L62.5011 36ZM76.2592 36.28C75.4326 36.28 74.6592 36.12 73.9392 35.8C73.2326 35.48 72.6792 35 72.2792 34.36L74.0792 32.86C74.3859 33.2867 74.7192 33.6133 75.0792 33.84C75.4526 34.0533 75.8992 34.16 76.4192 34.16C76.7659 34.16 77.0526 34.0933 77.2792 33.96C77.5192 33.8133 77.6392 33.6133 77.6392 33.36C77.6392 33.0933 77.5192 32.8733 77.2792 32.7C77.0392 32.5133 76.6392 32.3667 76.0792 32.26L75.4592 32.14C74.5659 31.9667 73.8726 31.6667 73.3792 31.24C72.8859 30.8 72.6392 30.1667 72.6392 29.34C72.6392 28.34 72.9926 27.5867 73.6992 27.08C74.4059 26.5733 75.3259 26.32 76.4592 26.32C77.2859 26.32 77.9792 26.46 78.5392 26.74C79.1126 27.0067 79.5992 27.3933 79.9992 27.9L78.1992 29.42C77.9726 29.1133 77.6859 28.8733 77.3392 28.7C77.0059 28.5267 76.6592 28.44 76.2992 28.44C75.9926 28.44 75.7259 28.5067 75.4992 28.64C75.2726 28.76 75.1592 28.9333 75.1592 29.16C75.1592 29.3867 75.2859 29.5733 75.5392 29.72C75.8059 29.8667 76.2592 29.9933 76.8992 30.1L77.3592 30.18C79.2792 30.5133 80.2392 31.4667 80.2392 33.04C80.2392 34.08 79.8792 34.88 79.1592 35.44C78.4392 36 77.4726 36.28 76.2592 36.28Z" fill="white"/>
<rect x="45" y="129" width="57" height="5" rx="2.5" fill="#072927"/>
<rect x="125" y="77" width="94" height="5" rx="2.5" fill="white" fill-opacity="0.5"/>
<rect x="125" y="68" width="148" height="5" rx="2.5" fill="white" fill-opacity="0.5"/>
<rect x="179" y="49" width="61" height="5" rx="2.5" fill="white" fill-opacity="0.5"/>
<rect x="125" y="59" width="148" height="5" rx="2.5" fill="white" fill-opacity="0.5"/>
<rect x="45" y="129" width="57" height="5" rx="2.5" fill="#072927"/>
<rect x="45" y="93" width="57" height="5" rx="2.5" fill="#072927"/>
<rect x="45" y="117" width="57" height="5" rx="2.5" fill="#072927"/>
<rect x="45" y="105" width="57" height="5" rx="2.5" fill="#072927"/>
<rect x="45" y="93" width="57" height="5" rx="2.5" fill="#072927"/>
<rect x="45" y="117" width="57" height="5" rx="2.5" fill="#072927"/>
<rect x="45" y="105" width="57" height="5" rx="2.5" fill="#072927"/>
<circle cx="134.5" cy="28.5" r="11.5" fill="#447777"/>
<rect x="125" y="91" width="17" height="5" rx="2.5" fill="white" fill-opacity="0.5"/>
<rect x="146" y="91" width="33" height="5" rx="2.5" fill="#05AAFC"/>
<path d="M131.7 48.98L131.33 51.69C131.303 51.9233 131.383 52.04 131.57 52.04C131.757 52.04 131.927 51.9667 132.08 51.82C132.24 51.6667 132.363 51.46 132.45 51.2C132.543 50.94 132.59 50.65 132.59 50.33C132.59 49.8367 132.48 49.4 132.26 49.02C132.04 48.6333 131.723 48.33 131.31 48.11C130.903 47.89 130.423 47.78 129.87 47.78C129.27 47.78 128.72 47.9133 128.22 48.18C127.727 48.4467 127.333 48.8367 127.04 49.35C126.747 49.8633 126.6 50.48 126.6 51.2C126.6 52.1133 126.847 52.8433 127.34 53.39C127.833 53.9367 128.573 54.21 129.56 54.21C130.027 54.21 130.48 54.1533 130.92 54.04C131.367 53.9267 131.717 53.7933 131.97 53.64L132.39 54.62C132.07 54.84 131.633 55.01 131.08 55.13C130.527 55.2567 129.98 55.32 129.44 55.32C128.567 55.32 127.827 55.1433 127.22 54.79C126.613 54.4433 126.157 53.96 125.85 53.34C125.55 52.72 125.4 52.0033 125.4 51.19C125.4 50.2433 125.6 49.43 126 48.75C126.4 48.0633 126.937 47.5433 127.61 47.19C128.283 46.8367 129.027 46.66 129.84 46.66C130.613 46.66 131.293 46.8167 131.88 47.13C132.467 47.4433 132.92 47.8733 133.24 48.42C133.56 48.9667 133.72 49.58 133.72 50.26C133.72 50.8 133.627 51.2867 133.44 51.72C133.26 52.1467 132.993 52.4833 132.64 52.73C132.293 52.9767 131.877 53.1 131.39 53.1C131.117 53.1 130.89 53.0333 130.71 52.9C130.53 52.7667 130.417 52.6033 130.37 52.41C130.27 52.6167 130.097 52.7833 129.85 52.91C129.603 53.0367 129.323 53.1 129.01 53.1C128.543 53.1 128.163 52.94 127.87 52.62C127.583 52.2933 127.44 51.82 127.44 51.2C127.44 50.7467 127.52 50.34 127.68 49.98C127.847 49.62 128.08 49.34 128.38 49.14C128.687 48.94 129.037 48.84 129.43 48.84C129.71 48.84 129.947 48.8933 130.14 49C130.34 49.1 130.49 49.2333 130.59 49.4L130.74 48.98H131.7ZM129.33 52.04C129.617 52.04 129.853 51.9233 130.04 51.69C130.227 51.45 130.32 51.1467 130.32 50.78C130.32 50.5 130.257 50.2833 130.13 50.13C130.003 49.9767 129.827 49.9 129.6 49.9C129.313 49.9 129.077 50.0167 128.89 50.25C128.703 50.4833 128.61 50.78 128.61 51.14C128.61 51.4267 128.67 51.65 128.79 51.81C128.917 51.9633 129.097 52.04 129.33 52.04ZM137.021 54.14C136.268 54.14 135.658 53.93 135.191 53.51C134.731 53.09 134.501 52.4733 134.501 51.66C134.501 51.1067 134.611 50.6433 134.831 50.27C135.051 49.89 135.338 49.61 135.691 49.43C136.051 49.25 136.434 49.16 136.841 49.16C137.594 49.16 138.154 49.3833 138.521 49.83C138.888 50.2767 139.071 50.8567 139.071 51.57C139.071 51.7233 139.061 51.88 139.041 52.04H135.861C135.928 52.3467 136.064 52.5867 136.271 52.76C136.478 52.9333 136.741 53.02 137.061 53.02C137.288 53.02 137.491 52.98 137.671 52.9C137.851 52.82 138.024 52.6967 138.191 52.53L138.901 53.43C138.668 53.65 138.401 53.8233 138.101 53.95C137.801 54.0767 137.441 54.14 137.021 54.14ZM137.831 51.09C137.758 50.53 137.431 50.25 136.851 50.25C136.584 50.25 136.368 50.3233 136.201 50.47C136.041 50.6167 135.931 50.8233 135.871 51.09H137.831ZM142.598 54H140.958L139.378 49.3H140.858L141.778 52.52L142.698 49.3H144.178L142.598 54ZM147.002 54.14C146.248 54.14 145.638 53.93 145.172 53.51C144.712 53.09 144.482 52.4733 144.482 51.66C144.482 51.1067 144.592 50.6433 144.812 50.27C145.032 49.89 145.318 49.61 145.672 49.43C146.032 49.25 146.415 49.16 146.822 49.16C147.575 49.16 148.135 49.3833 148.502 49.83C148.868 50.2767 149.052 50.8567 149.052 51.57C149.052 51.7233 149.042 51.88 149.022 52.04H145.842C145.908 52.3467 146.045 52.5867 146.252 52.76C146.458 52.9333 146.722 53.02 147.042 53.02C147.268 53.02 147.472 52.98 147.652 52.9C147.832 52.82 148.005 52.6967 148.172 52.53L148.882 53.43C148.648 53.65 148.382 53.8233 148.082 53.95C147.782 54.0767 147.422 54.14 147.002 54.14ZM147.812 51.09C147.738 50.53 147.412 50.25 146.832 50.25C146.565 50.25 146.348 50.3233 146.182 50.47C146.022 50.6167 145.912 50.8233 145.852 51.09H147.812ZM150.034 54V49.3H151.274L151.404 49.99C151.531 49.7167 151.694 49.51 151.894 49.37C152.101 49.23 152.361 49.16 152.674 49.16C152.867 49.16 153.007 49.1833 153.094 49.23V50.55C152.881 50.4633 152.654 50.42 152.414 50.42C152.207 50.42 152.011 50.4867 151.824 50.62C151.637 50.7467 151.497 50.9267 151.404 51.16V54H150.034ZM154.467 56C154.107 56 153.823 55.9467 153.617 55.84V54.66C153.837 54.7667 154.047 54.82 154.247 54.82C154.473 54.82 154.647 54.75 154.767 54.61C154.887 54.4767 155 54.27 155.107 53.99L155.277 53.54L153.617 49.3H155.047L155.937 51.8L156.897 49.3H158.317L156.107 54.67C155.94 55.0767 155.71 55.4 155.417 55.64C155.13 55.88 154.813 56 154.467 56ZM160.904 54.14C160.471 54.14 160.074 54.0467 159.714 53.86C159.361 53.6733 159.074 53.3933 158.854 53.02C158.641 52.6467 158.534 52.19 158.534 51.65C158.534 51.11 158.641 50.6533 158.854 50.28C159.074 49.9067 159.361 49.6267 159.714 49.44C160.074 49.2533 160.471 49.16 160.904 49.16C161.338 49.16 161.731 49.2533 162.084 49.44C162.444 49.6267 162.731 49.9067 162.944 50.28C163.164 50.6533 163.274 51.11 163.274 51.65C163.274 52.19 163.164 52.6467 162.944 53.02C162.731 53.3933 162.444 53.6733 162.084 53.86C161.731 54.0467 161.338 54.14 160.904 54.14ZM160.904 52.96C161.218 52.96 161.461 52.85 161.634 52.63C161.808 52.41 161.894 52.0833 161.894 51.65C161.894 51.2167 161.808 50.89 161.634 50.67C161.461 50.45 161.218 50.34 160.904 50.34C160.591 50.34 160.348 50.45 160.174 50.67C160.001 50.89 159.914 51.2167 159.914 51.65C159.914 52.0833 160.001 52.41 160.174 52.63C160.348 52.85 160.591 52.96 160.904 52.96ZM164.272 54V49.3H165.552L165.652 49.95C165.786 49.7167 165.966 49.5267 166.192 49.38C166.426 49.2333 166.706 49.16 167.032 49.16C167.539 49.16 167.916 49.31 168.162 49.61C168.409 49.9033 168.532 50.3 168.532 50.8V54H167.152V51.05C167.152 50.8367 167.096 50.6667 166.982 50.54C166.876 50.4067 166.726 50.34 166.532 50.34C166.346 50.34 166.169 50.3967 166.002 50.51C165.842 50.6233 165.726 50.7567 165.652 50.91V54H164.272ZM172.05 54.14C171.297 54.14 170.687 53.93 170.22 53.51C169.76 53.09 169.53 52.4733 169.53 51.66C169.53 51.1067 169.64 50.6433 169.86 50.27C170.08 49.89 170.367 49.61 170.72 49.43C171.08 49.25 171.464 49.16 171.87 49.16C172.624 49.16 173.184 49.3833 173.55 49.83C173.917 50.2767 174.1 50.8567 174.1 51.57C174.1 51.7233 174.09 51.88 174.07 52.04H170.89C170.957 52.3467 171.094 52.5867 171.3 52.76C171.507 52.9333 171.77 53.02 172.09 53.02C172.317 53.02 172.52 52.98 172.7 52.9C172.88 52.82 173.054 52.6967 173.22 52.53L173.93 53.43C173.697 53.65 173.43 53.8233 173.13 53.95C172.83 54.0767 172.47 54.14 172.05 54.14ZM172.86 51.09C172.787 50.53 172.46 50.25 171.88 50.25C171.614 50.25 171.397 50.3233 171.23 50.47C171.07 50.6167 170.96 50.8233 170.9 51.09H172.86Z" fill="#696DFF"/>
<path d="M85.222 182V177.424H84.26V175.89H85.222V174.629C85.222 173.866 85.4343 173.294 85.859 172.913C86.2837 172.523 86.8643 172.328 87.601 172.328C87.8263 172.328 88.004 172.341 88.134 172.367C88.264 172.393 88.4287 172.436 88.628 172.497V174.057C88.3247 173.927 88.056 173.862 87.822 173.862C87.2847 173.862 87.016 174.131 87.016 174.668V175.89H88.524V177.424H87.016V182H85.222ZM92.3484 182.182C91.7851 182.182 91.2694 182.061 90.8014 181.818C90.3421 181.575 89.9694 181.211 89.6834 180.726C89.4061 180.241 89.2674 179.647 89.2674 178.945C89.2674 178.243 89.4061 177.649 89.6834 177.164C89.9694 176.679 90.3421 176.315 90.8014 176.072C91.2694 175.829 91.7851 175.708 92.3484 175.708C92.9118 175.708 93.4231 175.829 93.8824 176.072C94.3504 176.315 94.7231 176.679 95.0004 177.164C95.2864 177.649 95.4294 178.243 95.4294 178.945C95.4294 179.647 95.2864 180.241 95.0004 180.726C94.7231 181.211 94.3504 181.575 93.8824 181.818C93.4231 182.061 92.9118 182.182 92.3484 182.182ZM92.3484 180.648C92.7558 180.648 93.0721 180.505 93.2974 180.219C93.5228 179.933 93.6354 179.508 93.6354 178.945C93.6354 178.382 93.5228 177.957 93.2974 177.671C93.0721 177.385 92.7558 177.242 92.3484 177.242C91.9411 177.242 91.6248 177.385 91.3994 177.671C91.1741 177.957 91.0614 178.382 91.0614 178.945C91.0614 179.508 91.1741 179.933 91.3994 180.219C91.6248 180.505 91.9411 180.648 92.3484 180.648ZM98.6899 182.182C98.0399 182.182 97.5502 182 97.2209 181.636C96.8916 181.272 96.7269 180.7 96.7269 179.92V172.51H98.5209V179.764C98.5209 180.059 98.5642 180.271 98.6509 180.401C98.7462 180.531 98.9022 180.596 99.1189 180.596C99.2836 180.596 99.4222 180.553 99.5349 180.466V182C99.4396 182.069 99.3269 182.117 99.1969 182.143C99.0669 182.169 98.8979 182.182 98.6899 182.182ZM102.638 182.182C101.988 182.182 101.498 182 101.169 181.636C100.84 181.272 100.675 180.7 100.675 179.92V172.51H102.469V179.764C102.469 180.059 102.512 180.271 102.599 180.401C102.694 180.531 102.85 180.596 103.067 180.596C103.232 180.596 103.37 180.553 103.483 180.466V182C103.388 182.069 103.275 182.117 103.145 182.143C103.015 182.169 102.846 182.182 102.638 182.182ZM107.227 182.182C106.664 182.182 106.148 182.061 105.68 181.818C105.221 181.575 104.848 181.211 104.562 180.726C104.285 180.241 104.146 179.647 104.146 178.945C104.146 178.243 104.285 177.649 104.562 177.164C104.848 176.679 105.221 176.315 105.68 176.072C106.148 175.829 106.664 175.708 107.227 175.708C107.791 175.708 108.302 175.829 108.761 176.072C109.229 176.315 109.602 176.679 109.879 177.164C110.165 177.649 110.308 178.243 110.308 178.945C110.308 179.647 110.165 180.241 109.879 180.726C109.602 181.211 109.229 181.575 108.761 181.818C108.302 182.061 107.791 182.182 107.227 182.182ZM107.227 180.648C107.635 180.648 107.951 180.505 108.176 180.219C108.402 179.933 108.514 179.508 108.514 178.945C108.514 178.382 108.402 177.957 108.176 177.671C107.951 177.385 107.635 177.242 107.227 177.242C106.82 177.242 106.504 177.385 106.278 177.671C106.053 177.957 105.94 178.382 105.94 178.945C105.94 179.508 106.053 179.933 106.278 180.219C106.504 180.505 106.82 180.648 107.227 180.648ZM114.622 182H112.607L110.956 175.89H112.763L113.725 179.946L114.765 175.89H116.637L117.677 179.946L118.639 175.89H120.446L118.795 182H116.78L115.701 178.009L114.622 182ZM126.902 182.182C126.191 182.182 125.667 182.004 125.329 181.649C124.991 181.294 124.822 180.735 124.822 179.972V177.424H123.743V175.89H124.822V174.304L126.629 173.784V175.89H128.111V177.424H126.629V179.777C126.629 180.054 126.681 180.271 126.785 180.427C126.889 180.574 127.084 180.648 127.37 180.648C127.647 180.648 127.894 180.557 128.111 180.375V181.87C127.816 182.078 127.413 182.182 126.902 182.182ZM129.29 182V172.51H131.084V176.761C131.258 176.449 131.492 176.198 131.786 176.007C132.081 175.808 132.445 175.708 132.878 175.708C133.537 175.708 134.044 175.916 134.399 176.332C134.755 176.739 134.932 177.272 134.932 177.931V182H133.138V178.204C133.138 177.901 133.065 177.667 132.917 177.502C132.77 177.329 132.549 177.242 132.254 177.242C131.986 177.242 131.747 177.311 131.539 177.45C131.331 177.589 131.18 177.771 131.084 177.996V182H129.29ZM137.436 174.915C137.107 174.915 136.847 174.82 136.656 174.629C136.466 174.438 136.37 174.178 136.37 173.849C136.37 173.52 136.466 173.26 136.656 173.069C136.847 172.878 137.107 172.783 137.436 172.783C137.766 172.783 138.026 172.878 138.216 173.069C138.407 173.26 138.502 173.52 138.502 173.849C138.502 174.178 138.407 174.438 138.216 174.629C138.026 174.82 137.766 174.915 137.436 174.915ZM138.333 182H136.539V175.89H138.333V182ZM142.1 182.182C141.562 182.182 141.06 182.078 140.592 181.87C140.132 181.662 139.773 181.35 139.513 180.934L140.683 179.959C140.882 180.236 141.099 180.449 141.333 180.596C141.575 180.735 141.866 180.804 142.204 180.804C142.429 180.804 142.615 180.761 142.763 180.674C142.919 180.579 142.997 180.449 142.997 180.284C142.997 180.111 142.919 179.968 142.763 179.855C142.607 179.734 142.347 179.638 141.983 179.569L141.58 179.491C140.999 179.378 140.548 179.183 140.228 178.906C139.907 178.62 139.747 178.208 139.747 177.671C139.747 177.021 139.976 176.531 140.436 176.202C140.895 175.873 141.493 175.708 142.23 175.708C142.767 175.708 143.218 175.799 143.582 175.981C143.954 176.154 144.271 176.406 144.531 176.735L143.361 177.723C143.213 177.524 143.027 177.368 142.802 177.255C142.585 177.142 142.36 177.086 142.126 177.086C141.926 177.086 141.753 177.129 141.606 177.216C141.458 177.294 141.385 177.407 141.385 177.554C141.385 177.701 141.467 177.823 141.632 177.918C141.805 178.013 142.1 178.096 142.516 178.165L142.815 178.217C144.063 178.434 144.687 179.053 144.687 180.076C144.687 180.752 144.453 181.272 143.985 181.636C143.517 182 142.888 182.182 142.1 182.182ZM151.535 182.182C150.955 182.182 150.426 182.061 149.949 181.818C149.481 181.575 149.104 181.211 148.818 180.726C148.541 180.232 148.402 179.634 148.402 178.932C148.402 178.221 148.545 177.623 148.831 177.138C149.117 176.653 149.499 176.293 149.975 176.059C150.452 175.825 150.981 175.708 151.561 175.708C152.185 175.708 152.697 175.821 153.095 176.046C153.503 176.271 153.849 176.601 154.135 177.034L152.796 178.022C152.649 177.788 152.476 177.602 152.276 177.463C152.077 177.316 151.83 177.242 151.535 177.242C151.145 177.242 150.825 177.389 150.573 177.684C150.322 177.97 150.196 178.386 150.196 178.932C150.196 179.487 150.322 179.911 150.573 180.206C150.833 180.501 151.163 180.648 151.561 180.648C151.882 180.648 152.142 180.579 152.341 180.44C152.549 180.301 152.736 180.111 152.9 179.868L154.135 180.908C153.893 181.289 153.546 181.597 153.095 181.831C152.645 182.065 152.125 182.182 151.535 182.182ZM155.341 182V172.51H157.135V176.761C157.308 176.449 157.542 176.198 157.837 176.007C158.132 175.808 158.496 175.708 158.929 175.708C159.588 175.708 160.095 175.916 160.45 176.332C160.805 176.739 160.983 177.272 160.983 177.931V182H159.189V178.204C159.189 177.901 159.115 177.667 158.968 177.502C158.821 177.329 158.6 177.242 158.305 177.242C158.036 177.242 157.798 177.311 157.59 177.45C157.382 177.589 157.23 177.771 157.135 177.996V182H155.341ZM164.154 182.182C163.599 182.182 163.149 182.017 162.802 181.688C162.455 181.35 162.282 180.895 162.282 180.323C162.282 179.63 162.594 179.118 163.218 178.789C163.851 178.451 164.739 178.273 165.883 178.256V178.217C165.883 177.905 165.779 177.654 165.571 177.463C165.372 177.272 165.107 177.177 164.778 177.177C164.527 177.177 164.262 177.225 163.985 177.32C163.716 177.415 163.461 177.571 163.218 177.788L162.386 176.683C162.698 176.362 163.071 176.12 163.504 175.955C163.937 175.79 164.41 175.708 164.921 175.708C166.758 175.708 167.677 176.544 167.677 178.217V182H166L165.883 181.337C165.458 181.9 164.882 182.182 164.154 182.182ZM164.648 180.778C164.908 180.778 165.133 180.726 165.324 180.622C165.523 180.509 165.71 180.366 165.883 180.193V179.374C164.644 179.435 164.024 179.721 164.024 180.232C164.024 180.414 164.08 180.553 164.193 180.648C164.306 180.735 164.457 180.778 164.648 180.778ZM169.293 182V175.89H170.957L171.087 176.735C171.261 176.432 171.495 176.185 171.789 175.994C172.093 175.803 172.457 175.708 172.881 175.708C173.54 175.708 174.03 175.903 174.35 176.293C174.671 176.674 174.831 177.19 174.831 177.84V182H173.037V178.165C173.037 177.888 172.964 177.667 172.816 177.502C172.678 177.329 172.483 177.242 172.231 177.242C171.989 177.242 171.759 177.316 171.542 177.463C171.334 177.61 171.183 177.784 171.087 177.983V182H169.293ZM176.441 182V175.89H178.105L178.235 176.735C178.408 176.432 178.642 176.185 178.937 175.994C179.24 175.803 179.604 175.708 180.029 175.708C180.687 175.708 181.177 175.903 181.498 176.293C181.818 176.674 181.979 177.19 181.979 177.84V182H180.185V178.165C180.185 177.888 180.111 177.667 179.964 177.502C179.825 177.329 179.63 177.242 179.379 177.242C179.136 177.242 178.906 177.316 178.69 177.463C178.482 177.61 178.33 177.784 178.235 177.983V182H176.441ZM186.552 182.182C185.573 182.182 184.78 181.909 184.173 181.363C183.575 180.817 183.276 180.015 183.276 178.958C183.276 178.239 183.419 177.636 183.705 177.151C183.991 176.657 184.364 176.293 184.823 176.059C185.291 175.825 185.79 175.708 186.318 175.708C187.298 175.708 188.026 175.998 188.502 176.579C188.979 177.16 189.217 177.914 189.217 178.841C189.217 179.04 189.204 179.244 189.178 179.452H185.044C185.131 179.851 185.309 180.163 185.577 180.388C185.846 180.613 186.188 180.726 186.604 180.726C186.899 180.726 187.163 180.674 187.397 180.57C187.631 180.466 187.857 180.306 188.073 180.089L188.996 181.259C188.693 181.545 188.346 181.77 187.956 181.935C187.566 182.1 187.098 182.182 186.552 182.182ZM187.605 178.217C187.51 177.489 187.085 177.125 186.331 177.125C185.985 177.125 185.703 177.22 185.486 177.411C185.278 177.602 185.135 177.87 185.057 178.217H187.605ZM192.457 182.182C191.807 182.182 191.318 182 190.988 181.636C190.659 181.272 190.494 180.7 190.494 179.92V172.51H192.288V179.764C192.288 180.059 192.332 180.271 192.418 180.401C192.514 180.531 192.67 180.596 192.886 180.596C193.051 180.596 193.19 180.553 193.302 180.466V182C193.207 182.069 193.094 182.117 192.964 182.143C192.834 182.169 192.665 182.182 192.457 182.182ZM199.938 182.182C199.227 182.182 198.703 182.004 198.365 181.649C198.027 181.294 197.858 180.735 197.858 179.972V177.424H196.779V175.89H197.858V174.304L199.665 173.784V175.89H201.147V177.424H199.665V179.777C199.665 180.054 199.717 180.271 199.821 180.427C199.925 180.574 200.12 180.648 200.406 180.648C200.683 180.648 200.93 180.557 201.147 180.375V181.87C200.852 182.078 200.449 182.182 199.938 182.182ZM205.096 182.182C204.532 182.182 204.017 182.061 203.549 181.818C203.089 181.575 202.717 181.211 202.431 180.726C202.153 180.241 202.015 179.647 202.015 178.945C202.015 178.243 202.153 177.649 202.431 177.164C202.717 176.679 203.089 176.315 203.549 176.072C204.017 175.829 204.532 175.708 205.096 175.708C205.659 175.708 206.17 175.829 206.63 176.072C207.098 176.315 207.47 176.679 207.748 177.164C208.034 177.649 208.177 178.243 208.177 178.945C208.177 179.647 208.034 180.241 207.748 180.726C207.47 181.211 207.098 181.575 206.63 181.818C206.17 182.061 205.659 182.182 205.096 182.182ZM205.096 180.648C205.503 180.648 205.819 180.505 206.045 180.219C206.27 179.933 206.383 179.508 206.383 178.945C206.383 178.382 206.27 177.957 206.045 177.671C205.819 177.385 205.503 177.242 205.096 177.242C204.688 177.242 204.372 177.385 204.147 177.671C203.921 177.957 203.809 178.382 203.809 178.945C203.809 179.508 203.921 179.933 204.147 180.219C204.372 180.505 204.688 180.648 205.096 180.648ZM214.787 184.652C213.869 184.652 213.141 184.505 212.603 184.21C212.066 183.915 211.797 183.473 211.797 182.884C211.797 182.364 212.036 181.965 212.512 181.688C212.226 181.428 212.083 181.103 212.083 180.713C212.083 180.15 212.378 179.725 212.967 179.439C212.525 179.049 212.304 178.529 212.304 177.879C212.304 177.246 212.521 176.726 212.954 176.319C213.396 175.912 214.007 175.708 214.787 175.708C215.186 175.708 215.554 175.769 215.892 175.89L216.932 174.746L217.92 175.851L216.893 176.644C217.145 176.999 217.27 177.411 217.27 177.879C217.27 178.512 217.049 179.032 216.607 179.439C216.174 179.846 215.567 180.05 214.787 180.05C214.441 180.05 214.116 180.002 213.812 179.907C213.63 180.002 213.539 180.132 213.539 180.297C213.539 180.618 213.834 180.778 214.423 180.778H215.853C216.408 180.778 216.872 180.925 217.244 181.22C217.617 181.515 217.803 181.926 217.803 182.455C217.803 183.192 217.539 183.742 217.01 184.106C216.49 184.47 215.749 184.652 214.787 184.652ZM214.787 178.828C215.056 178.828 215.268 178.746 215.424 178.581C215.58 178.408 215.658 178.174 215.658 177.879C215.658 177.584 215.58 177.355 215.424 177.19C215.268 177.017 215.056 176.93 214.787 176.93C214.519 176.93 214.306 177.017 214.15 177.19C213.994 177.355 213.916 177.584 213.916 177.879C213.916 178.174 213.994 178.408 214.15 178.581C214.306 178.746 214.519 178.828 214.787 178.828ZM214.787 183.417C215.307 183.417 215.684 183.356 215.918 183.235C216.152 183.114 216.269 182.932 216.269 182.689C216.269 182.524 216.209 182.399 216.087 182.312C215.975 182.225 215.823 182.182 215.632 182.182H214.111C213.938 182.182 213.721 182.165 213.461 182.13C213.357 182.251 213.305 182.399 213.305 182.572C213.305 182.849 213.431 183.057 213.682 183.196C213.934 183.343 214.302 183.417 214.787 183.417ZM221.655 182.182C220.675 182.182 219.882 181.909 219.276 181.363C218.678 180.817 218.379 180.015 218.379 178.958C218.379 178.239 218.522 177.636 218.808 177.151C219.094 176.657 219.466 176.293 219.926 176.059C220.394 175.825 220.892 175.708 221.421 175.708C222.4 175.708 223.128 175.998 223.605 176.579C224.081 177.16 224.32 177.914 224.32 178.841C224.32 179.04 224.307 179.244 224.281 179.452H220.147C220.233 179.851 220.411 180.163 220.68 180.388C220.948 180.613 221.291 180.726 221.707 180.726C222.001 180.726 222.266 180.674 222.5 180.57C222.734 180.466 222.959 180.306 223.176 180.089L224.099 181.259C223.795 181.545 223.449 181.77 223.059 181.935C222.669 182.1 222.201 182.182 221.655 182.182ZM222.708 178.217C222.612 177.489 222.188 177.125 221.434 177.125C221.087 177.125 220.805 177.22 220.589 177.411C220.381 177.602 220.238 177.87 220.16 178.217H222.708ZM228.236 182.182C227.525 182.182 227.001 182.004 226.663 181.649C226.325 181.294 226.156 180.735 226.156 179.972V177.424H225.077V175.89H226.156V174.304L227.963 173.784V175.89H229.445V177.424H227.963V179.777C227.963 180.054 228.015 180.271 228.119 180.427C228.223 180.574 228.418 180.648 228.704 180.648C228.981 180.648 229.228 180.557 229.445 180.375V181.87C229.15 182.078 228.747 182.182 228.236 182.182ZM235.431 182.182C234.772 182.182 234.282 181.991 233.962 181.61C233.641 181.22 233.481 180.7 233.481 180.05V175.89H235.275V179.725C235.275 180.002 235.344 180.228 235.483 180.401C235.63 180.566 235.829 180.648 236.081 180.648C236.323 180.648 236.549 180.574 236.757 180.427C236.973 180.28 237.129 180.106 237.225 179.907V175.89H239.019V182H237.355L237.225 181.155C237.051 181.458 236.813 181.705 236.51 181.896C236.215 182.087 235.855 182.182 235.431 182.182ZM240.628 184.47V175.89H242.162L242.266 176.475C242.492 176.224 242.734 176.033 242.994 175.903C243.254 175.773 243.558 175.708 243.904 175.708C244.398 175.708 244.849 175.834 245.256 176.085C245.664 176.336 245.989 176.709 246.231 177.203C246.474 177.688 246.595 178.269 246.595 178.945C246.595 179.621 246.474 180.206 246.231 180.7C245.989 181.185 245.664 181.554 245.256 181.805C244.849 182.056 244.398 182.182 243.904 182.182C243.315 182.182 242.821 182.022 242.422 181.701V184.47H240.628ZM243.41 180.648C243.826 180.648 244.16 180.492 244.411 180.18C244.671 179.868 244.801 179.456 244.801 178.945C244.801 178.434 244.671 178.022 244.411 177.71C244.16 177.398 243.826 177.242 243.41 177.242C243.02 177.242 242.691 177.402 242.422 177.723V180.18C242.682 180.492 243.012 180.648 243.41 180.648ZM250.269 182.182C249.775 182.182 249.324 182.056 248.917 181.805C248.51 181.554 248.185 181.185 247.942 180.7C247.699 180.206 247.578 179.621 247.578 178.945C247.578 178.269 247.699 177.688 247.942 177.203C248.185 176.709 248.51 176.336 248.917 176.085C249.324 175.834 249.775 175.708 250.269 175.708C250.858 175.708 251.352 175.868 251.751 176.189V172.51H253.545V182H252.011L251.907 181.415C251.682 181.666 251.439 181.857 251.179 181.987C250.919 182.117 250.616 182.182 250.269 182.182ZM250.763 180.648C251.153 180.648 251.482 180.488 251.751 180.167V177.71C251.491 177.398 251.162 177.242 250.763 177.242C250.347 177.242 250.009 177.398 249.749 177.71C249.498 178.022 249.372 178.434 249.372 178.945C249.372 179.456 249.498 179.868 249.749 180.18C250.009 180.492 250.347 180.648 250.763 180.648ZM256.868 182.182C256.313 182.182 255.862 182.017 255.516 181.688C255.169 181.35 254.996 180.895 254.996 180.323C254.996 179.63 255.308 179.118 255.932 178.789C256.564 178.451 257.453 178.273 258.597 178.256V178.217C258.597 177.905 258.493 177.654 258.285 177.463C258.085 177.272 257.821 177.177 257.492 177.177C257.24 177.177 256.976 177.225 256.699 177.32C256.43 177.415 256.174 177.571 255.932 177.788L255.1 176.683C255.412 176.362 255.784 176.12 256.218 175.955C256.651 175.79 257.123 175.708 257.635 175.708C259.472 175.708 260.391 176.544 260.391 178.217V182H258.714L258.597 181.337C258.172 181.9 257.596 182.182 256.868 182.182ZM257.362 180.778C257.622 180.778 257.847 180.726 258.038 180.622C258.237 180.509 258.423 180.366 258.597 180.193V179.374C257.357 179.435 256.738 179.721 256.738 180.232C256.738 180.414 256.794 180.553 256.907 180.648C257.019 180.735 257.171 180.778 257.362 180.778ZM264.43 182.182C263.72 182.182 263.195 182.004 262.857 181.649C262.519 181.294 262.35 180.735 262.35 179.972V177.424H261.271V175.89H262.35V174.304L264.157 173.784V175.89H265.639V177.424H264.157V179.777C264.157 180.054 264.209 180.271 264.313 180.427C264.417 180.574 264.612 180.648 264.898 180.648C265.176 180.648 265.423 180.557 265.639 180.375V181.87C265.345 182.078 264.942 182.182 264.43 182.182ZM269.783 182.182C268.803 182.182 268.01 181.909 267.404 181.363C266.806 180.817 266.507 180.015 266.507 178.958C266.507 178.239 266.65 177.636 266.936 177.151C267.222 176.657 267.594 176.293 268.054 176.059C268.522 175.825 269.02 175.708 269.549 175.708C270.528 175.708 271.256 175.998 271.733 176.579C272.209 177.16 272.448 177.914 272.448 178.841C272.448 179.04 272.435 179.244 272.409 179.452H268.275C268.361 179.851 268.539 180.163 268.808 180.388C269.076 180.613 269.419 180.726 269.835 180.726C270.129 180.726 270.394 180.674 270.628 180.57C270.862 180.466 271.087 180.306 271.304 180.089L272.227 181.259C271.923 181.545 271.577 181.77 271.187 181.935C270.797 182.1 270.329 182.182 269.783 182.182ZM270.836 178.217C270.74 177.489 270.316 177.125 269.562 177.125C269.215 177.125 268.933 177.22 268.717 177.411C268.509 177.602 268.366 177.87 268.288 178.217H270.836ZM275.883 182.182C275.346 182.182 274.843 182.078 274.375 181.87C273.916 181.662 273.556 181.35 273.296 180.934L274.466 179.959C274.665 180.236 274.882 180.449 275.116 180.596C275.359 180.735 275.649 180.804 275.987 180.804C276.212 180.804 276.399 180.761 276.546 180.674C276.702 180.579 276.78 180.449 276.78 180.284C276.78 180.111 276.702 179.968 276.546 179.855C276.39 179.734 276.13 179.638 275.766 179.569L275.363 179.491C274.782 179.378 274.332 179.183 274.011 178.906C273.69 178.62 273.53 178.208 273.53 177.671C273.53 177.021 273.76 176.531 274.219 176.202C274.678 175.873 275.276 175.708 276.013 175.708C276.55 175.708 277.001 175.799 277.365 175.981C277.738 176.154 278.054 176.406 278.314 176.735L277.144 177.723C276.997 177.524 276.81 177.368 276.585 177.255C276.368 177.142 276.143 177.086 275.909 177.086C275.71 177.086 275.536 177.129 275.389 177.216C275.242 177.294 275.168 177.407 275.168 177.554C275.168 177.701 275.25 177.823 275.415 177.918C275.588 178.013 275.883 178.096 276.299 178.165L276.598 178.217C277.846 178.434 278.47 179.053 278.47 180.076C278.47 180.752 278.236 181.272 277.768 181.636C277.3 182 276.672 182.182 275.883 182.182Z" fill="white"/>
<path fill-rule="evenodd" clip-rule="evenodd" d="M24.93 20.8333C24.4875 20.833 24.0514 20.9395 23.6588 21.1438C23.2662 21.3481 22.9287 21.6441 22.675 22.0067C22.2555 22.6069 21.6596 23.0619 20.97 23.3083L12.8117 26.2233C12.7214 26.2538 12.6428 26.3117 12.587 26.3889C12.5311 26.4662 12.5007 26.5589 12.5 26.6542V35.9033C12.502 36.5147 12.7077 37.108 13.0845 37.5894C13.4613 38.0708 13.9878 38.4129 14.5808 38.5617L15.1492 38.7083C16.5883 39.075 18.0367 38.195 18.4033 36.765C18.4327 36.6488 18.4866 36.5402 18.5613 36.4464C18.6359 36.3526 18.7298 36.2759 18.8365 36.2212C18.9432 36.1666 19.0603 36.1353 19.18 36.1295C19.2997 36.1237 19.4193 36.1434 19.5308 36.1875L21.6942 37.0492C22.0792 37.2967 22.4183 37.6175 22.675 37.9933C22.9287 38.3559 23.2662 38.6519 23.6588 38.8562C24.0514 39.0605 24.4875 39.167 24.93 39.1667H25.7917C26.5525 39.1667 27.1667 38.5525 27.1667 37.7917V22.2083C27.1667 21.4475 26.5525 20.8333 25.7917 20.8333H24.93ZM17.1108 35.3167L14.3333 34.3083V35.8942C14.3335 36.0989 14.4022 36.2977 14.5284 36.4588C14.6547 36.62 14.8313 36.7342 15.03 36.7833L15.5983 36.9208C16.0567 37.04 16.515 36.765 16.625 36.3067C16.7167 35.9308 16.8908 35.5917 17.1108 35.2983V35.3167Z" fill="white"/>
<path d="M8.83331 28.1667C8.83331 27.1583 9.65831 26.3333 10.6666 26.3333H11.125C11.3816 26.3333 11.5833 26.535 11.5833 26.7917V33.2083C11.5833 33.3299 11.535 33.4465 11.4491 33.5324C11.3631 33.6184 11.2465 33.6667 11.125 33.6667H10.6666C10.1804 33.6667 9.7141 33.4735 9.37028 33.1297C9.02647 32.7859 8.83331 32.3196 8.83331 31.8333V28.1667Z" fill="white"/>
<rect x="4" y="50" width="91" height="30" rx="8" fill="#447777"/>
<path d="M39.56 71.28C38.7333 71.28 37.96 71.12 37.24 70.8C36.5333 70.48 35.98 70 35.58 69.36L37.38 67.86C37.6867 68.2867 38.02 68.6133 38.38 68.84C38.7533 69.0533 39.2 69.16 39.72 69.16C40.0667 69.16 40.3533 69.0933 40.58 68.96C40.82 68.8133 40.94 68.6133 40.94 68.36C40.94 68.0933 40.82 67.8733 40.58 67.7C40.34 67.5133 39.94 67.3667 39.38 67.26L38.76 67.14C37.8667 66.9667 37.1733 66.6667 36.68 66.24C36.1867 65.8 35.94 65.1667 35.94 64.34C35.94 63.34 36.2933 62.5867 37 62.08C37.7067 61.5733 38.6267 61.32 39.76 61.32C40.5867 61.32 41.28 61.46 41.84 61.74C42.4133 62.0067 42.9 62.3933 43.3 62.9L41.5 64.42C41.2733 64.1133 40.9867 63.8733 40.64 63.7C40.3067 63.5267 39.96 63.44 39.6 63.44C39.2933 63.44 39.0267 63.5067 38.8 63.64C38.5733 63.76 38.46 63.9333 38.46 64.16C38.46 64.3867 38.5867 64.5733 38.84 64.72C39.1067 64.8667 39.56 64.9933 40.2 65.1L40.66 65.18C42.58 65.5133 43.54 66.4667 43.54 68.04C43.54 69.08 43.18 69.88 42.46 70.44C41.74 71 40.7733 71.28 39.56 71.28ZM49.4453 71.28C48.5786 71.28 47.7853 71.0933 47.0653 70.72C46.3586 70.3467 45.7853 69.7867 45.3453 69.04C44.9186 68.2933 44.7053 67.38 44.7053 66.3C44.7053 65.22 44.9186 64.3067 45.3453 63.56C45.7853 62.8133 46.3586 62.2533 47.0653 61.88C47.7853 61.5067 48.5786 61.32 49.4453 61.32C50.312 61.32 51.0986 61.5067 51.8053 61.88C52.5253 62.2533 53.0986 62.8133 53.5253 63.56C53.9653 64.3067 54.1853 65.22 54.1853 66.3C54.1853 67.38 53.9653 68.2933 53.5253 69.04C53.0986 69.7867 52.5253 70.3467 51.8053 70.72C51.0986 71.0933 50.312 71.28 49.4453 71.28ZM49.4453 68.92C50.072 68.92 50.5586 68.7 50.9053 68.26C51.252 67.82 51.4253 67.1667 51.4253 66.3C51.4253 65.4333 51.252 64.78 50.9053 64.34C50.5586 63.9 50.072 63.68 49.4453 63.68C48.8186 63.68 48.332 63.9 47.9853 64.34C47.6386 64.78 47.4653 65.4333 47.4653 66.3C47.4653 67.1667 47.6386 67.82 47.9853 68.26C48.332 68.7 48.8186 68.92 49.4453 68.92ZM60.5214 71.28C59.6281 71.28 58.8147 71.0933 58.0814 70.72C57.3614 70.3467 56.7814 69.7867 56.3414 69.04C55.9147 68.28 55.7014 67.36 55.7014 66.28C55.7014 65.1867 55.9214 64.2667 56.3614 63.52C56.8014 62.7733 57.3881 62.22 58.1214 61.86C58.8547 61.5 59.6681 61.32 60.5614 61.32C61.5214 61.32 62.3081 61.4933 62.9214 61.84C63.5481 62.1867 64.0814 62.6933 64.5214 63.36L62.4614 64.88C62.2347 64.52 61.9681 64.2333 61.6614 64.02C61.3547 63.7933 60.9747 63.68 60.5214 63.68C59.9214 63.68 59.4281 63.9067 59.0414 64.36C58.6547 64.8 58.4614 65.44 58.4614 66.28C58.4614 67.1333 58.6547 67.7867 59.0414 68.24C59.4414 68.6933 59.9481 68.92 60.5614 68.92C61.0547 68.92 61.4547 68.8133 61.7614 68.6C62.0814 68.3867 62.3681 68.0933 62.6214 67.72L64.5214 69.32C64.1481 69.9067 63.6147 70.38 62.9214 70.74C62.2281 71.1 61.4281 71.28 60.5214 71.28ZM67.7567 60.1C67.2501 60.1 66.8501 59.9533 66.5567 59.66C66.2634 59.3667 66.1167 58.9667 66.1167 58.46C66.1167 57.9533 66.2634 57.5533 66.5567 57.26C66.8501 56.9667 67.2501 56.82 67.7567 56.82C68.2634 56.82 68.6634 56.9667 68.9567 57.26C69.2501 57.5533 69.3967 57.9533 69.3967 58.46C69.3967 58.9667 69.2501 59.3667 68.9567 59.66C68.6634 59.9533 68.2634 60.1 67.7567 60.1ZM69.1367 71H66.3767V61.6H69.1367V71ZM74.2511 71.28C73.3978 71.28 72.7044 71.0267 72.1711 70.52C71.6378 70 71.3711 69.3 71.3711 68.42C71.3711 67.3533 71.8511 66.5667 72.8111 66.06C73.7844 65.54 75.1511 65.2667 76.9111 65.24V65.18C76.9111 64.7 76.7511 64.3133 76.4311 64.02C76.1244 63.7267 75.7178 63.58 75.2111 63.58C74.8244 63.58 74.4178 63.6533 73.9911 63.8C73.5778 63.9467 73.1844 64.1867 72.8111 64.52L71.5311 62.82C72.0111 62.3267 72.5844 61.9533 73.2511 61.7C73.9178 61.4467 74.6444 61.32 75.4311 61.32C78.2578 61.32 79.6711 62.6067 79.6711 65.18V71H77.0911L76.9111 69.98C76.2578 70.8467 75.3711 71.28 74.2511 71.28ZM75.0111 69.12C75.4111 69.12 75.7578 69.04 76.0511 68.88C76.3578 68.7067 76.6444 68.4867 76.9111 68.22V66.96C75.0044 67.0533 74.0511 67.4933 74.0511 68.28C74.0511 68.56 74.1378 68.7733 74.3111 68.92C74.4844 69.0533 74.7178 69.12 75.0111 69.12ZM85.178 71.28C84.178 71.28 83.4246 71 82.918 70.44C82.4113 69.88 82.158 69 82.158 67.8V56.4H84.918V67.56C84.918 68.0133 84.9846 68.34 85.118 68.54C85.2646 68.74 85.5046 68.84 85.838 68.84C86.0913 68.84 86.3046 68.7733 86.478 68.64V71C86.3313 71.1067 86.158 71.18 85.958 71.22C85.758 71.26 85.498 71.28 85.178 71.28Z" fill="white"/>
<path fill-rule="evenodd" clip-rule="evenodd" d="M24.93 56.8333C24.4875 56.833 24.0514 56.9395 23.6588 57.1438C23.2662 57.3481 22.9287 57.6441 22.675 58.0067C22.2555 58.6069 21.6596 59.0619 20.97 59.3083L12.8117 62.2233C12.7214 62.2538 12.6428 62.3117 12.587 62.3889C12.5311 62.4662 12.5007 62.5589 12.5 62.6542V71.9033C12.502 72.5147 12.7077 73.108 13.0845 73.5894C13.4613 74.0708 13.9878 74.4129 14.5808 74.5617L15.1492 74.7083C16.5883 75.075 18.0367 74.195 18.4033 72.765C18.4327 72.6488 18.4866 72.5402 18.5613 72.4464C18.6359 72.3526 18.7298 72.2759 18.8365 72.2212C18.9432 72.1666 19.0603 72.1353 19.18 72.1295C19.2997 72.1237 19.4193 72.1434 19.5308 72.1875L21.6942 73.0492C22.0792 73.2967 22.4183 73.6175 22.675 73.9933C22.9287 74.3559 23.2662 74.6519 23.6588 74.8562C24.0514 75.0605 24.4875 75.167 24.93 75.1667H25.7917C26.5525 75.1667 27.1667 74.5525 27.1667 73.7917V58.2083C27.1667 57.4475 26.5525 56.8333 25.7917 56.8333H24.93ZM17.1108 71.3167L14.3333 70.3083V71.8942C14.3335 72.0989 14.4022 72.2977 14.5284 72.4588C14.6547 72.62 14.8313 72.7342 15.03 72.7833L15.5983 72.9208C16.0567 73.04 16.515 72.765 16.625 72.3067C16.7167 71.9308 16.8908 71.5917 17.1108 71.2983V71.3167Z" fill="white"/>
<path d="M8.83331 64.1667C8.83331 63.1583 9.65831 62.3333 10.6666 62.3333H11.125C11.3816 62.3333 11.5833 62.535 11.5833 62.7917V69.2083C11.5833 69.3299 11.535 69.4465 11.4491 69.5324C11.3631 69.6184 11.2465 69.6667 11.125 69.6667H10.6666C10.1804 69.6667 9.7141 69.4735 9.37028 69.1297C9.02647 68.7859 8.83331 68.3196 8.83331 67.8333V64.1667Z" fill="white"/>
<g clip-path="url(#clip0_18_69)">
<mask id="mask0_18_69" style="mask-type:luminance" maskUnits="userSpaceOnUse" x="48" y="160" width="26" height="33">
<path d="M48 160H74V193H48V160Z" fill="white"/>
</mask>
<g mask="url(#mask0_18_69)">
<path d="M56.1072 189.811L63.874 182.154" stroke="#103939" stroke-miterlimit="10"/>
<path d="M66.598 183.05H65.99V186.822H66.598V183.05Z" fill="#317672"/>
<path d="M61.8877 182.738H61.2797V186.51H61.8877V182.738Z" fill="#317672"/>
<path d="M56.6828 166.865H49.3214V182.298H56.6828V166.865Z" fill="#317672"/>
<path d="M56.6828 166.865H49.3214V168.408H56.6828V166.865Z" fill="#317672"/>
<path d="M71.0651 182.298H56.6828V168.408L63.874 164.204L71.0651 168.408V182.298Z" fill="#4BB494"/>
<path d="M56.6828 166.17V168.408L63.874 164.204L71.0651 168.408V166.17L63.874 161.966L56.6828 166.17Z" fill="#317672"/>
<path d="M57.4855 165.938H55.8884V182.298H57.4855V165.938Z" fill="#103939"/>
<path d="M71.8596 166.785H70.2625V182.298H71.8596V166.785Z" fill="#103939"/>
<path d="M68.7546 166.434H68.2762V172.548H68.7546V166.434Z" fill="#103939"/>
<path d="M73.1649 167.409L63.874 161.966L54.5831 167.409" stroke="#E77002" stroke-width="2" stroke-linecap="round" stroke-linejoin="round"/>
<path d="M63.8739 165.938C64.2093 165.938 64.5414 166.003 64.8513 166.13C65.1611 166.256 65.4426 166.442 65.6798 166.676C65.9169 166.909 66.105 167.187 66.2334 167.492C66.3617 167.798 66.4278 168.125 66.4278 168.456V173.035H61.3202V168.456C61.3202 168.125 61.3862 167.798 61.5146 167.492C61.6429 167.187 61.831 166.909 62.0682 166.676C62.5471 166.204 63.1967 165.938 63.8739 165.938Z" fill="white"/>
<path d="M63.8739 166.394C64.1625 166.394 64.4482 166.45 64.7147 166.559C64.9813 166.668 65.2235 166.827 65.4275 167.028C65.6315 167.229 65.7933 167.468 65.9038 167.731C66.0142 167.994 66.071 168.275 66.071 168.56V172.548H61.6769V168.6C61.6715 168.312 61.7243 168.026 61.8323 167.759C61.9404 167.491 62.1013 167.248 62.3059 167.042C62.5104 166.837 62.7544 166.674 63.0237 166.562C63.2929 166.451 63.582 166.394 63.8739 166.394Z" fill="#202225"/>
<path d="M61.6769 168.6V172.548H59.4717V166.434C59.7609 166.433 60.0476 166.488 60.315 166.596C60.5825 166.705 60.8257 166.864 61.0306 167.065C61.2354 167.267 61.398 167.506 61.5089 167.769C61.6198 168.032 61.6769 168.315 61.6769 168.6Z" fill="#447777"/>
<path d="M66.0711 168.6V172.548H68.2682V166.434C67.6855 166.434 67.1267 166.662 66.7146 167.068C66.3026 167.474 66.0711 168.025 66.0711 168.6Z" fill="#447777"/>
<path d="M63.874 181.291C65.7456 181.291 67.2628 179.796 67.2628 177.951C67.2628 176.106 65.7456 174.61 63.874 174.61C62.0023 174.61 60.4851 176.106 60.4851 177.951C60.4851 179.796 62.0023 181.291 63.874 181.291Z" fill="#696DFF"/>
<path d="M63.874 180.764C65.45 180.764 66.7278 179.504 66.7278 177.951C66.7278 176.397 65.45 175.137 63.874 175.137C62.2979 175.137 61.0202 176.397 61.0202 177.951C61.0202 179.504 62.2979 180.764 63.874 180.764Z" fill="white"/>
<path d="M56.1073 193C57.8938 193 59.3421 191.572 59.3421 189.811C59.3421 188.05 57.8938 186.622 56.1073 186.622C54.3208 186.622 52.8725 188.05 52.8725 189.811C52.8725 191.572 54.3208 193 56.1073 193Z" fill="#103939"/>
<path d="M65.5036 176.64L63.874 177.951L62.2444 176.64" stroke="#36393F" stroke-width="0.75" stroke-linecap="round" stroke-linejoin="round"/>
<path d="M73.1649 167.409L62.0417 160.895" stroke="#4BB494" stroke-width="2" stroke-linecap="round" stroke-linejoin="round"/>
<path d="M63.9795 161.966H57.2991C57.1645 161.963 57.032 161.999 56.918 162.07L48.2189 167.193C48.1648 167.224 48.1178 167.266 48.081 167.315C48.0442 167.365 48.0185 167.422 48.0055 167.482C47.9925 167.543 47.9925 167.605 48.0056 167.665C48.0186 167.726 48.0443 167.783 48.0811 167.832C48.1266 167.883 48.1828 167.924 48.2458 167.952C48.3088 167.979 48.377 167.993 48.4459 167.992H55.102L54.6804 167.417L63.9795 161.966Z" fill="#82C7B6"/>
<path opacity="0.5" d="M56.9098 166.098L56.1883 166.522H49.3052L50.0268 166.098H56.9098Z" fill="#4BB494"/>
<path opacity="0.5" d="M59.6419 164.5L58.9204 164.923H52.0374L52.7589 164.5H59.6419Z" fill="#4BB494"/>
<path opacity="0.5" d="M62.3579 162.909L61.6364 163.333H54.7452L55.4748 162.909H62.3579Z" fill="#4BB494"/>
<path d="M54.5831 167.409L65.7063 160.895" stroke="#4BB494" stroke-width="2" stroke-linecap="round" stroke-linejoin="round"/>
<path d="M64.0524 169.91C64.0807 169.892 64.1038 169.867 64.1194 169.838C64.1351 169.809 64.1427 169.776 64.1416 169.743C64.1421 169.711 64.1341 169.679 64.1185 169.651C64.1028 169.623 64.08 169.599 64.0524 169.583L61.7823 168.088C61.7477 168.233 61.726 168.38 61.7175 168.528L63.6065 169.743L61.7175 170.973V171.453L64.0524 169.91Z" fill="#E77002"/>
<path d="M66.6468 171.709C66.6093 171.717 66.5706 171.717 66.5332 171.709L63.8254 169.91C63.797 169.892 63.774 169.868 63.7583 169.838C63.7427 169.809 63.7351 169.776 63.7362 169.743C63.7357 169.711 63.7437 169.679 63.7593 169.651C63.7749 169.623 63.7977 169.599 63.8254 169.583L66.5494 167.816C66.584 167.797 66.6231 167.786 66.663 167.786C66.7028 167.786 66.742 167.797 66.7764 167.816L69.5005 169.591C69.5282 169.607 69.551 169.631 69.5666 169.659C69.5823 169.687 69.5902 169.719 69.5897 169.751C69.5908 169.784 69.5832 169.817 69.5675 169.846C69.5519 169.876 69.5288 169.9 69.5005 169.918L66.7764 171.685C66.7359 171.703 66.6913 171.711 66.6468 171.709ZM64.2956 169.743L66.6468 171.269L68.9978 169.743L66.6468 168.224L64.2956 169.743Z" fill="#E77002"/>
<path d="M62.9092 168.839L61.7823 168.088C61.7477 168.233 61.726 168.38 61.7175 168.528L62.9498 169.327L62.9092 168.839Z" fill="#B93C00"/>
<path d="M62.9093 170.174L61.677 170.973V171.453L62.9093 170.654V170.174Z" fill="#B93C00"/>
<path d="M67.8489 170.386L67.5852 170.646L69.4999 172.534L69.7636 172.274L67.8489 170.386Z" fill="#2E3338"/>
<path d="M69.046 170.389L68.7823 170.649L70.697 172.536L70.9607 172.276L69.046 170.389Z" fill="#2E3338"/>
<path d="M71.203 170.062C71.6988 169.571 72.0057 168.925 72.0708 168.235C72.1359 167.545 71.9552 166.855 71.5597 166.282L70.3193 164.484H68.8519V166.777C68.8519 166.977 68.7716 167.168 68.6287 167.309C68.4858 167.45 68.2919 167.529 68.0898 167.529H65.7306V168.048C65.7306 168.812 66.0378 169.545 66.5849 170.086C67.132 170.626 67.8744 170.931 68.6492 170.933H69.0789C69.875 170.927 70.6371 170.614 71.203 170.062Z" fill="#696DFF"/>
<path d="M72.1921 172.14H67.5628C67.3345 172.14 67.1494 172.321 67.1494 172.544C67.1494 172.767 67.3345 172.947 67.5628 172.947H72.1921C72.4204 172.947 72.6055 172.767 72.6055 172.544C72.6055 172.321 72.4204 172.14 72.1921 172.14Z" fill="#FF9A15"/>
<path d="M70.3193 163.644C70.7085 163.644 71.0817 163.797 71.3569 164.068C71.6321 164.339 71.7867 164.707 71.7867 165.091V165.467H68.8519V165.083C68.854 164.701 69.0096 164.335 69.2846 164.065C69.5595 163.796 69.9315 163.644 70.3193 163.644Z" fill="#696DFF"/>
<path d="M72.2164 164.931C72.287 165 72.3428 165.082 72.3804 165.173C72.418 165.264 72.4367 165.361 72.4353 165.459H71.0327C70.9806 165.458 70.9299 165.442 70.8869 165.413C70.8439 165.384 70.8104 165.343 70.7906 165.295C70.7708 165.248 70.7655 165.195 70.7754 165.145C70.7853 165.095 70.8099 165.048 70.8462 165.011L71.13 164.731V164.332C71.13 164.28 71.1502 164.231 71.1864 164.193C71.2227 164.156 71.2722 164.134 71.3246 164.132C71.378 164.135 71.4291 164.154 71.4705 164.188L72.2164 164.931Z" fill="#FF9A15"/>
<path d="M70.3192 163.644H69.8895C69.3607 163.644 68.8536 163.437 68.4789 163.069L68.2681 162.837V162.981C68.2681 163.447 68.456 163.895 68.7905 164.224C69.125 164.554 69.5786 164.739 70.0517 164.739H70.3111L70.3192 163.644Z" fill="#696DFF"/>
<path d="M68.2357 164.3H69.4112V165.459L68.2357 164.3Z" fill="#696DFF"/>
<path d="M66.4116 168.648C66.6308 169.109 67.022 169.47 67.5039 169.655C67.9859 169.839 68.5215 169.834 68.9994 169.639C69.4774 169.445 69.861 169.076 70.0706 168.61C70.2801 168.144 70.2995 167.617 70.1247 167.137L66.4116 168.648Z" fill="#FF9A15"/>
<path d="M64.4333 166.25L65.3495 167.193C65.4698 167.31 65.5653 167.449 65.6307 167.603C65.6962 167.757 65.7301 167.922 65.7305 168.088H66.3872V167.633C66.3864 167.378 66.3001 167.131 66.1417 166.93C65.9832 166.729 65.7617 166.585 65.5116 166.522L64.4333 166.25Z" fill="#696DFF"/>
<path d="M66.1602 167.816L66.0872 167.888C66.0573 167.917 66.0196 167.936 65.9788 167.943C65.9379 167.95 65.8958 167.945 65.8578 167.929C65.8197 167.913 65.7873 167.886 65.7647 167.852C65.742 167.817 65.7302 167.777 65.7305 167.736V165.635L66.1602 166.058C66.3939 166.293 66.5249 166.608 66.5249 166.937C66.5249 167.266 66.3939 167.582 66.1602 167.816Z" fill="#696DFF"/>
<path d="M70.4084 164.739C70.5114 164.739 70.5949 164.657 70.5949 164.556C70.5949 164.454 70.5114 164.372 70.4084 164.372C70.3054 164.372 70.2219 164.454 70.2219 164.556C70.2219 164.657 70.3054 164.739 70.4084 164.739Z" fill="#202225"/>
<path d="M59.4718 166.434H58.9935V172.548H59.4718V166.434Z" fill="#103939"/>
<path d="M63.1768 184.728H59.9906V191.386H63.1768V184.728Z" fill="#4BB494"/>
<path d="M67.8871 186.374H64.7009V193.04H67.8871V186.374Z" fill="#4BB494"/>
<path d="M48.4459 182.115H73.4892V182.914C73.4892 183.105 73.4123 183.287 73.2755 183.422C73.1387 183.557 72.9531 183.633 72.7596 183.633H49.1755C48.982 183.633 48.7964 183.557 48.6596 183.422C48.5227 183.287 48.4459 183.105 48.4459 182.914V182.115Z" fill="#82C7B6"/>
<path d="M56.1073 175.033H52.1833L53.9021 170.558C53.9181 170.51 53.949 170.468 53.9905 170.438C54.032 170.409 54.0819 170.393 54.1332 170.393C54.1844 170.393 54.2343 170.409 54.2758 170.438C54.3173 170.468 54.3482 170.51 54.3642 170.558L56.1073 175.033Z" fill="#4BB494"/>
<path d="M56.1073 178.126H51.9158C51.8392 178.126 51.764 178.106 51.6979 178.068C51.6319 178.03 51.5774 177.975 51.5402 177.909C51.503 177.843 51.4844 177.768 51.4863 177.692C51.4882 177.617 51.5105 177.543 51.551 177.479L53.748 173.835H54.5588L56.6505 177.303C56.7018 177.391 56.7275 177.492 56.7246 177.593C56.7218 177.695 56.6905 177.793 56.6343 177.879C56.5782 177.964 56.4992 178.032 56.4062 178.076C56.3132 178.119 56.2097 178.137 56.1073 178.126Z" fill="#4BB494"/>
<path d="M54.8182 179.365H53.4562V182.115H54.8182V179.365Z" fill="#51303F"/>
<path d="M56.7153 180.404H51.551L53.5373 175.033H54.7371L56.7153 180.404Z" fill="#4BB494"/>
<path d="M55.2478 175.033H53.0183L55.8153 175.977L55.2478 175.033Z" fill="#28977B"/>
<path d="M55.8721 178.126H52.4184L56.3666 179.453L55.8721 178.126Z" fill="#28977B"/>
<path d="M54.8911 171.932L54.3641 170.558C54.3482 170.51 54.3172 170.468 54.2757 170.438C54.2343 170.409 54.1843 170.393 54.1331 170.393C54.0818 170.393 54.0319 170.409 53.9905 170.438C53.949 170.468 53.918 170.51 53.9021 170.558L53.3751 171.932H54.8911Z" fill="#82C7B6"/>
<path d="M52.0536 176.64H52.9373C53.5175 176.642 54.0735 176.869 54.4858 177.271C54.8964 176.872 55.4496 176.648 56.0262 176.648H56.2045L56.7639 177.583C56.7979 177.641 56.8159 177.707 56.8161 177.774C56.8163 177.841 56.7987 177.906 56.7651 177.965C56.7315 178.023 56.683 178.071 56.6245 178.105C56.566 178.139 56.4994 178.158 56.4315 178.158H51.6645C51.6133 178.158 51.5632 178.145 51.519 178.119C51.4749 178.094 51.4382 178.058 51.4128 178.014C51.3873 177.97 51.374 177.921 51.374 177.87C51.3741 177.82 51.3876 177.77 51.4131 177.727L52.0536 176.64Z" fill="#82C7B6"/>
</g>
</g>
<path d="M157.68 33.182C156.865 33.182 156.142 32.9957 155.509 32.623C154.876 32.2417 154.382 31.7 154.027 30.998C153.672 30.296 153.494 29.4683 153.494 28.515C153.494 27.5617 153.672 26.734 154.027 26.032C154.382 25.33 154.876 24.7927 155.509 24.42C156.142 24.0387 156.865 23.848 157.68 23.848C159.301 23.848 160.445 24.4763 161.112 25.733L159.695 26.838C159.496 26.4393 159.218 26.1273 158.863 25.902C158.508 25.6767 158.113 25.564 157.68 25.564C157.247 25.564 156.857 25.6767 156.51 25.902C156.163 26.1273 155.89 26.4653 155.691 26.916C155.492 27.358 155.392 27.891 155.392 28.515C155.392 29.139 155.492 29.6763 155.691 30.127C155.89 30.569 156.163 30.9027 156.51 31.128C156.857 31.3533 157.247 31.466 157.68 31.466C158.105 31.466 158.495 31.3533 158.85 31.128C159.214 30.9027 159.496 30.5907 159.695 30.192L161.112 31.297C160.783 31.9123 160.323 32.3803 159.734 32.701C159.153 33.0217 158.469 33.182 157.68 33.182ZM164.262 33.182C163.612 33.182 163.122 33 162.793 32.636C162.464 32.272 162.299 31.7 162.299 30.92V23.51H164.093V30.764C164.093 31.0587 164.136 31.271 164.223 31.401C164.318 31.531 164.474 31.596 164.691 31.596C164.856 31.596 164.994 31.5527 165.107 31.466V33C165.012 33.0693 164.899 33.117 164.769 33.143C164.639 33.169 164.47 33.182 164.262 33.182ZM167.963 33.182C167.409 33.182 166.958 33.0173 166.611 32.688C166.265 32.35 166.091 31.895 166.091 31.323C166.091 30.6297 166.403 30.1183 167.027 29.789C167.66 29.451 168.548 29.2733 169.692 29.256V29.217C169.692 28.905 169.588 28.6537 169.38 28.463C169.181 28.2723 168.917 28.177 168.587 28.177C168.336 28.177 168.072 28.2247 167.794 28.32C167.526 28.4153 167.27 28.5713 167.027 28.788L166.195 27.683C166.507 27.3623 166.88 27.1197 167.313 26.955C167.747 26.7903 168.219 26.708 168.73 26.708C170.568 26.708 171.486 27.5443 171.486 29.217V33H169.809L169.692 32.337C169.268 32.9003 168.691 33.182 167.963 33.182ZM168.457 31.778C168.717 31.778 168.943 31.726 169.133 31.622C169.333 31.5093 169.519 31.3663 169.692 31.193V30.374C168.453 30.4347 167.833 30.7207 167.833 31.232C167.833 31.414 167.89 31.5527 168.002 31.648C168.115 31.7347 168.267 31.778 168.457 31.778ZM174 25.915C173.671 25.915 173.411 25.8197 173.22 25.629C173.029 25.4383 172.934 25.1783 172.934 24.849C172.934 24.5197 173.029 24.2597 173.22 24.069C173.411 23.8783 173.671 23.783 174 23.783C174.329 23.783 174.589 23.8783 174.78 24.069C174.971 24.2597 175.066 24.5197 175.066 24.849C175.066 25.1783 174.971 25.4383 174.78 25.629C174.589 25.8197 174.329 25.915 174 25.915ZM174.897 33H173.103V26.89H174.897V33ZM176.505 33V26.89H178.117L178.286 27.787C178.451 27.4317 178.663 27.163 178.923 26.981C179.192 26.799 179.53 26.708 179.937 26.708C180.189 26.708 180.371 26.7383 180.483 26.799V28.515C180.206 28.4023 179.911 28.346 179.599 28.346C179.331 28.346 179.075 28.4327 178.832 28.606C178.59 28.7707 178.408 29.0047 178.286 29.308V33H176.505ZM184.433 33.182C183.454 33.182 182.661 32.909 182.054 32.363C181.456 31.817 181.157 31.0153 181.157 29.958C181.157 29.2387 181.3 28.6363 181.586 28.151C181.872 27.657 182.245 27.293 182.704 27.059C183.172 26.825 183.67 26.708 184.199 26.708C185.178 26.708 185.906 26.9983 186.383 27.579C186.86 28.1597 187.098 28.9137 187.098 29.841C187.098 30.0403 187.085 30.244 187.059 30.452H182.925C183.012 30.8507 183.189 31.1627 183.458 31.388C183.727 31.6133 184.069 31.726 184.485 31.726C184.78 31.726 185.044 31.674 185.278 31.57C185.512 31.466 185.737 31.3057 185.954 31.089L186.877 32.259C186.574 32.545 186.227 32.7703 185.837 32.935C185.447 33.0997 184.979 33.182 184.433 33.182ZM185.486 29.217C185.391 28.489 184.966 28.125 184.212 28.125C183.865 28.125 183.584 28.2203 183.367 28.411C183.159 28.6017 183.016 28.8703 182.938 29.217H185.486ZM191.336 33V24.03H194.521C195.881 24.03 196.93 24.4157 197.667 25.187C198.412 25.9583 198.785 27.0677 198.785 28.515C198.785 29.9623 198.412 31.0717 197.667 31.843C196.93 32.6143 195.881 33 194.521 33H191.336ZM194.521 31.284C195.249 31.284 195.825 31.076 196.25 30.66C196.674 30.244 196.887 29.529 196.887 28.515C196.887 27.501 196.674 26.786 196.25 26.37C195.825 25.954 195.249 25.746 194.521 25.746H193.234V31.284H194.521ZM203.044 33.182C202.065 33.182 201.272 32.909 200.665 32.363C200.067 31.817 199.768 31.0153 199.768 29.958C199.768 29.2387 199.911 28.6363 200.197 28.151C200.483 27.657 200.856 27.293 201.315 27.059C201.783 26.825 202.282 26.708 202.81 26.708C203.79 26.708 204.518 26.9983 204.994 27.579C205.471 28.1597 205.709 28.9137 205.709 29.841C205.709 30.0403 205.696 30.244 205.67 30.452H201.536C201.623 30.8507 201.801 31.1627 202.069 31.388C202.338 31.6133 202.68 31.726 203.096 31.726C203.391 31.726 203.655 31.674 203.889 31.57C204.123 31.466 204.349 31.3057 204.565 31.089L205.488 32.259C205.185 32.545 204.838 32.7703 204.448 32.935C204.058 33.0997 203.59 33.182 203.044 33.182ZM204.097 29.217C204.002 28.489 203.577 28.125 202.823 28.125C202.477 28.125 202.195 28.2203 201.978 28.411C201.77 28.6017 201.627 28.8703 201.549 29.217H204.097ZM208.601 33.182C208.046 33.182 207.596 33.0173 207.249 32.688C206.902 32.35 206.729 31.895 206.729 31.323C206.729 30.6297 207.041 30.1183 207.665 29.789C208.298 29.451 209.186 29.2733 210.33 29.256V29.217C210.33 28.905 210.226 28.6537 210.018 28.463C209.819 28.2723 209.554 28.177 209.225 28.177C208.974 28.177 208.709 28.2247 208.432 28.32C208.163 28.4153 207.908 28.5713 207.665 28.788L206.833 27.683C207.145 27.3623 207.518 27.1197 207.951 26.955C208.384 26.7903 208.857 26.708 209.368 26.708C211.205 26.708 212.124 27.5443 212.124 29.217V33H210.447L210.33 32.337C209.905 32.9003 209.329 33.182 208.601 33.182ZM209.095 31.778C209.355 31.778 209.58 31.726 209.771 31.622C209.97 31.5093 210.157 31.3663 210.33 31.193V30.374C209.091 30.4347 208.471 30.7207 208.471 31.232C208.471 31.414 208.527 31.5527 208.64 31.648C208.753 31.7347 208.904 31.778 209.095 31.778ZM213.741 33V26.89H215.353L215.522 27.787C215.686 27.4317 215.899 27.163 216.159 26.981C216.427 26.799 216.765 26.708 217.173 26.708C217.424 26.708 217.606 26.7383 217.719 26.799V28.515C217.441 28.4023 217.147 28.346 216.835 28.346C216.566 28.346 216.31 28.4327 216.068 28.606C215.825 28.7707 215.643 29.0047 215.522 29.308V33H213.741ZM219.919 25.915C219.589 25.915 219.329 25.8197 219.139 25.629C218.948 25.4383 218.853 25.1783 218.853 24.849C218.853 24.5197 218.948 24.2597 219.139 24.069C219.329 23.8783 219.589 23.783 219.919 23.783C220.248 23.783 220.508 23.8783 220.699 24.069C220.889 24.2597 220.985 24.5197 220.985 24.849C220.985 25.1783 220.889 25.4383 220.699 25.629C220.508 25.8197 220.248 25.915 219.919 25.915ZM220.816 33H219.022V26.89H220.816V33ZM222.424 33V26.89H224.088L224.218 27.735C224.391 27.4317 224.625 27.1847 224.92 26.994C225.223 26.8033 225.587 26.708 226.012 26.708C226.671 26.708 227.16 26.903 227.481 27.293C227.802 27.6743 227.962 28.19 227.962 28.84V33H226.168V29.165C226.168 28.8877 226.094 28.6667 225.947 28.502C225.808 28.3287 225.613 28.242 225.362 28.242C225.119 28.242 224.89 28.3157 224.673 28.463C224.465 28.6103 224.313 28.7837 224.218 28.983V33H222.424ZM232.029 35.652C231.11 35.652 230.382 35.5047 229.845 35.21C229.307 34.9153 229.039 34.4733 229.039 33.884C229.039 33.364 229.277 32.9653 229.754 32.688C229.468 32.428 229.325 32.103 229.325 31.713C229.325 31.1497 229.619 30.725 230.209 30.439C229.767 30.049 229.546 29.529 229.546 28.879C229.546 28.2463 229.762 27.7263 230.196 27.319C230.638 26.9117 231.249 26.708 232.029 26.708C232.427 26.708 232.796 26.7687 233.134 26.89L234.174 25.746L235.162 26.851L234.135 27.644C234.386 27.9993 234.512 28.411 234.512 28.879C234.512 29.5117 234.291 30.0317 233.849 30.439C233.415 30.8463 232.809 31.05 232.029 31.05C231.682 31.05 231.357 31.0023 231.054 30.907C230.872 31.0023 230.781 31.1323 230.781 31.297C230.781 31.6177 231.075 31.778 231.665 31.778H233.095C233.649 31.778 234.113 31.9253 234.486 32.22C234.858 32.5147 235.045 32.9263 235.045 33.455C235.045 34.1917 234.78 34.742 234.252 35.106C233.732 35.47 232.991 35.652 232.029 35.652ZM232.029 29.828C232.297 29.828 232.51 29.7457 232.666 29.581C232.822 29.4077 232.9 29.1737 232.9 28.879C232.9 28.5843 232.822 28.3547 232.666 28.19C232.51 28.0167 232.297 27.93 232.029 27.93C231.76 27.93 231.548 28.0167 231.392 28.19C231.236 28.3547 231.158 28.5843 231.158 28.879C231.158 29.1737 231.236 29.4077 231.392 29.581C231.548 29.7457 231.76 29.828 232.029 29.828ZM232.029 34.417C232.549 34.417 232.926 34.3563 233.16 34.235C233.394 34.1137 233.511 33.9317 233.511 33.689C233.511 33.5243 233.45 33.3987 233.329 33.312C233.216 33.2253 233.064 33.182 232.874 33.182H231.353C231.179 33.182 230.963 33.1647 230.703 33.13C230.599 33.2513 230.547 33.3987 230.547 33.572C230.547 33.8493 230.672 34.0573 230.924 34.196C231.175 34.3433 231.543 34.417 232.029 34.417Z" fill="white"/>
<rect x="125" y="101" width="148" height="52" rx="10" fill="#447777" fill-opacity="0.44"/>
<defs>
<clipPath id="clip0_18_69">
<rect width="26" height="33" fill="white" transform="translate(48 160)"/>
</clipPath>
</defs>
</svg>
